<?xml version="1.0" encoding="UTF-8"?>
<svg id="Ebene_2" data-name="Ebene 2" xmlns="http://www.w3.org/2000/svg" viewBox="0 0 502.71 434.21">
  <defs>
    <style>
      .cls-1 {
        fill: #fff;
        opacity: .8;
      }
    </style>
  </defs>
  <g id="Ebene_1-2" data-name="Ebene 1">
    <path class="cls-1" d="M91.33,20.79c19.65-7.16,95.06-32.52,209.54-14.36,80.48,12.77,134.83,21.38,171.26,62.83,31.89,36.28,31.33,79.84,30.22,166.96-.84,65.75-1.86,101.05-30.22,132.85-28.25,31.67-66.74,40.95-112.83,52.06-33.31,8.03-135.87,31.3-241.77-14.36-30.67-13.22-68.4-29.49-94.69-66.42C-1.7,305.88-.91,266.5,.67,187.74,2.7,86.59,23.68,62,34.92,51.31c16.63-15.82,34.21-22.43,56.41-30.52Z"/>
  </g>
</svg>