<?xml version="1.0" encoding="UTF-8"?>
<svg id="Ebene_2" data-name="Ebene 2" xmlns="http://www.w3.org/2000/svg" viewBox="0 0 71.47 68.01">
  <defs>
    <style>
      .cls-1 {
        fill: #ba5313;
      }

      .cls-2 {
        fill: none;
        stroke: #171614;
        stroke-miterlimit: 10;
      }

      .cls-3 {
        fill: #006130;
      }
    </style>
  </defs>
  <g id="Ebene_1-2" data-name="Ebene 1">
    <path class="cls-2" d="M34.97,.5C19.35,.65,3.83,11.76,.97,27.5c-3.53,19.44,13.44,39.45,34,40,18.32,.49,36.28-14.55,36-34C70.69,14.24,52.67,.33,34.97,.5Z"/>
    <g>
      <path class="cls-3" d="M35.54,13.82c-.44,8.34-1.33,16.65-2.66,24.9"/>
      <path class="cls-3" d="M34.04,13.82c-.44,8.21-1.3,16.38-2.6,24.5-.3,1.89,2.59,2.7,2.89,.8,1.34-8.38,2.25-16.82,2.71-25.3,.1-1.93-2.9-1.92-3,0h0Z"/>
    </g>
    <g>
      <path class="cls-1" d="M32.89,39.59c7.49-2.64,15.25-4.5,23.12-5.54"/>
      <path class="cls-1" d="M33.29,41.04c7.37-2.58,14.98-4.45,22.72-5.48,.81-.11,1.49-.61,1.5-1.5,0-.73-.7-1.61-1.5-1.5-8.02,1.07-15.88,2.91-23.52,5.59-1.81,.63-1.03,3.53,.8,2.89h0Z"/>
    </g>
  </g>
</svg>