<?xml version="1.0" encoding="UTF-8"?>
<svg id="Ebene_2" data-name="Ebene 2" xmlns="http://www.w3.org/2000/svg" viewBox="0 0 149.92 150.66">
  <defs>
    <style>
      .cls-1 {
        fill: #ba5313;
      }

      .cls-2 {
        fill: #51bbfe;
      }

      .cls-3 {
        fill: #ffc74f;
      }

      .cls-4 {
        stroke: #000;
        stroke-linecap: round;
        stroke-linejoin: round;
        stroke-width: 3px;
      }

      .cls-4, .cls-5 {
        fill: none;
      }

      .cls-6 {
        fill: #006130;
      }
    </style>
  </defs>
  <g id="Ebene_1-2" data-name="Ebene 1">
    <circle class="cls-2" cx="75.86" cy="74.37" r="74"/>
    <circle class="cls-3" cx="80.86" cy="53.37" r="51"/>
    <path class="cls-1" d="M35.94,92.2c-.91,.68-1.86,1.3-2.85,1.85-.49,.27-.98,.53-1.49,.76-.26,.12-.52,.24-.79,.36-.15,.07-.13,.06,.06-.02-.07,.03-.13,.05-.2,.08-.13,.05-.27,.11-.4,.16-.38,.15-.69,.33-.9,.69-.19,.32-.27,.8-.15,1.16,.23,.71,1.06,1.35,1.85,1.05,2.28-.88,4.42-2.03,6.38-3.49,.32-.24,.58-.49,.69-.9,.1-.36,.05-.84-.15-1.16-.4-.62-1.38-1.04-2.05-.54h0Z"/>
    <path class="cls-1" d="M55.32,91.82c-9.31,3.27-18.41,7.12-27.25,11.51-1.73,.86-.21,3.45,1.51,2.59,8.61-4.28,17.46-8.02,26.53-11.21,1.81-.64,1.03-3.54-.8-2.89h0Z"/>
    <path class="cls-1" d="M28.56,100.04c1.93,0,1.93-3,0-3s-1.93,3,0,3h0Z"/>
    <path class="cls-1" d="M30.07,96.88c-1.47,.44-2.89,1.07-4.2,1.87-.33,.2-.59,.52-.69,.9s-.05,.84,.15,1.16c.43,.67,1.34,.98,2.05,.54s1.45-.82,2.21-1.14l-.36,.15c.53-.22,1.07-.42,1.63-.58,.37-.11,.7-.36,.9-.69s.27-.8,.15-1.16c-.25-.76-1.04-1.29-1.85-1.05h0Z"/>
    <path class="cls-1" d="M32.43,96.74c-1.62,.77-3.21,1.61-4.77,2.5-.68,.39-.97,1.37-.54,2.05s1.32,.96,2.05,.54c1.56-.9,3.15-1.73,4.77-2.5,.32-.15,.6-.56,.69-.9,.1-.36,.05-.84-.15-1.16-.47-.73-1.29-.9-2.05-.54h0Z"/>
    <path class="cls-1" d="M56.9,93.55c-10.6,3.2-21.04,7.25-29.84,14.11-1.52,1.19,.62,3.29,2.12,2.12,8.37-6.52,18.46-10.31,28.52-13.34,1.84-.56,1.06-3.45-.8-2.89h0Z"/>
    <path class="cls-1" d="M58.46,97.79c-9.02,3.28-17.89,6.98-26.56,11.09-1.74,.83-.22,3.41,1.51,2.59,8.44-4,17.06-7.6,25.84-10.79,1.8-.65,1.02-3.55-.8-2.89h0Z"/>
    <path class="cls-1" d="M63.99,100.6c-8.55,4.36-19.23,2.26-27.16,8.21-1.53,1.15-.03,3.75,1.51,2.59,3.86-2.9,8.6-3.79,13.26-4.54s9.55-1.45,13.9-3.67c1.72-.88,.2-3.47-1.51-2.59h0Z"/>
    <path class="cls-1" d="M66.94,101.68c-9.03,2.91-18.88,1.56-27.76,5.08-1.77,.7-1,3.61,.8,2.89,8.87-3.51,18.73-2.17,27.76-5.08,1.83-.59,1.05-3.49-.8-2.89h0Z"/>
    <path class="cls-6" d="M85.01,64.17c-1.54-1.78-4.15-2.01-6.3-1.41-1.23,.34-2.3,.95-2.84,2.15s-.88,2.64-1.11,3.99c-.4,2.38-.75,5.32,.74,7.42s4.02,2.4,6.4,2.44c3.11,.05,6.31,.03,9.27-1.02,.76-.27,1.27-1.02,1.05-1.85-.2-.74-1.08-1.32-1.85-1.05-2.65,.94-5.42,.95-8.2,.92-1.86-.02-4.12,0-4.63-2.19-.24-1.06-.12-2.26,.02-3.33,.17-1.3,.43-2.78,.97-3.98,.29-.65,1.36-.75,2-.79,.92-.06,1.74,.12,2.36,.82,.53,.61,1.58,.54,2.12,0,.61-.61,.53-1.51,0-2.12h0Z"/>
    <path class="cls-6" d="M84.07,64.97c-1.68-.25-3.38-.42-4.96,.33s-2.43,2.51-2.48,4.23c-.03,.9,.17,1.81,.44,2.66s.54,1.75,1.01,2.48c1.15,1.78,3.26,1.63,5.13,1.64,2.17,.01,4.33-.08,6.49-.27,.81-.07,1.5-.64,1.5-1.5,0-.76-.69-1.57-1.5-1.5-1.94,.17-3.88,.26-5.82,.27-.93,0-1.9,.05-2.83-.05-.22-.02-.32-.02-.39-.12-.16-.22-.24-.48-.35-.77-.29-.77-.62-1.58-.68-2.41-.04-.57,.05-1.22,.29-1.55,.34-.47,.83-.61,1.3-.65,.35-.03,.7-.02,1.04,0,.44,.03,.64,.05,.99,.11,.8,.12,1.61-.2,1.85-1.05,.19-.71-.24-1.72-1.05-1.85h0Z"/>
    <path class="cls-6" d="M86.89,64.97c-1.12,.08-2.29,.16-3.36,.55s-2.06,1.03-2.77,1.99-.91,2.15-1.05,3.28-.02,2.32,.5,3.39c.34,.71,1.41,.95,2.05,.54,.73-.47,.91-1.3,.54-2.05-.17-.34,.08,.29-.03-.07-.02-.07-.05-.15-.07-.22,0-.02-.08-.33-.07-.34-.02,0,.03,.33,0,0-.01-.2-.01-.39,0-.59,0-.1,.01-.2,.02-.3,0-.06,.01-.12,.02-.18,.01-.11,0-.08-.01,.1-.05-.11,.08-.46,.11-.58,.04-.2,.09-.4,.14-.59,.03-.1,.06-.19,.09-.29,.02-.06,.04-.11,.06-.17l-.05,.14c0-.05,.15-.28,.17-.32s.22-.28,.07-.11,.08-.08,.09-.09c.06-.06,.13-.13,.19-.18,.23-.21,.04,.02-.01,0,.01,0,.19-.13,.22-.15,.17-.11,.34-.2,.52-.28,.25-.12-.18,.06,0,0,.09-.03,.17-.06,.25-.09,.39-.13,.82-.24,1.24-.27-.37,.03,.06,0,.11,0,.11-.01,.21-.02,.32-.03,.23-.02,.46-.04,.7-.06,.78-.06,1.54-.65,1.5-1.5-.03-.76-.66-1.56-1.5-1.5h0Z"/>
    <path class="cls-6" d="M86.4,65.91c-1.67-.07-3.28,.99-4.06,2.43-.86,1.58-.81,3.54-.13,5.19,.16,.38,.32,.68,.69,.9,.32,.19,.8,.27,1.16,.15s.71-.34,.9-.69,.3-.79,.15-1.16c-.12-.29-.22-.59-.3-.9-.02-.08-.04-.16-.05-.25-.01-.06-.05-.35-.02-.1s0-.07,0-.1c0-.07-.01-.13-.01-.2,0-.17,0-.33,0-.5,0-.06,.04-.35,0-.1s.01-.06,.02-.09c.03-.15,.07-.29,.11-.43,.02-.06,.09-.17,.08-.23,0,.08-.15,.33-.03,.1,.06-.11,.12-.22,.19-.32,.03-.05,.19-.25,.03-.05s.02-.01,.04-.04c.08-.09,.17-.18,.26-.26,.05-.04,.11-.08,.16-.13-.07,.08-.27,.2-.07,.07,.1-.07,.21-.13,.32-.18,.25-.14-.26,.09-.1,.04,.06-.02,.13-.05,.19-.07s.13-.04,.2-.05c.13-.03,.28,0-.12,0,.14,0,.27-.02,.41-.01,.78,.03,1.54-.71,1.5-1.5-.04-.84-.66-1.47-1.5-1.5h0Z"/>
    <path class="cls-6" d="M86.65,66.35c-1.83,.82-3.15,2.99-2.37,4.98,.21,.54,.5,1.02,.96,1.39,.49,.4,1.01,.66,1.61,.86,.95,.32,2,.44,3,.37,.4-.03,.77-.15,1.06-.44,.26-.26,.46-.69,.44-1.06-.03-.77-.66-1.56-1.5-1.5-.47,.03-.94,.02-1.41-.04l.4,.05c-.53-.08-1.05-.2-1.55-.41l.36,.15c-.21-.09-.41-.2-.59-.34l.3,.23c-.12-.09-.22-.2-.32-.31l.23,.3c-.1-.13-.18-.27-.25-.42l.15,.36c-.07-.18-.12-.35-.14-.54l.05,.4c-.02-.19-.02-.38,0-.57l-.05,.4c.03-.21,.09-.42,.17-.61l-.15,.36c.09-.2,.2-.38,.33-.56l-.23,.3c.17-.21,.36-.39,.57-.56l-.3,.23c.24-.18,.49-.32,.76-.44,.32-.14,.6-.57,.69-.9,.1-.36,.05-.84-.15-1.16s-.51-.6-.9-.69c-.42-.09-.77-.02-1.16,.15h0Z"/>
    <path class="cls-6" d="M89.19,65.06c-.71,.29-1.37,.66-1.89,1.24s-.89,1.21-1.11,1.93c-.23,.77-.22,1.58-.07,2.36s.57,1.5,1.07,2.12c.23,.28,.72,.44,1.06,.44,.37,0,.81-.16,1.06-.44s.46-.66,.44-1.06c-.02-.42-.18-.73-.44-1.06,.3,.37,.02,.02-.05-.1-.04-.07-.08-.14-.12-.21-.03-.05-.13-.28-.02-.04s0,0,0-.05c-.02-.06-.04-.13-.06-.2-.04-.15-.06-.29-.08-.44l.05,.4c-.03-.27-.03-.54,0-.81l-.05,.4c.02-.13,.04-.27,.08-.4,.02-.07,.04-.15,.06-.22,.02-.06,.11-.28,0-.03s0,.03,.02-.03,.06-.11,.09-.17c.03-.05,.24-.3,.23-.35,0,.04-.25,.31-.07,.1,.04-.05,.08-.09,.13-.14,.09-.09,.19-.16,.28-.25-.26,.27-.19,.14-.06,.06,.05-.04,.11-.07,.16-.1,.12-.07,.56-.26,.08-.06,.38-.15,.68-.32,.9-.69,.19-.32,.27-.8,.15-1.16s-.34-.71-.69-.9-.79-.3-1.16-.15h0Z"/>
    <path class="cls-6" d="M90.61,70.94l-.65-4.49-.32-2.2-.04-.25c.02,.16,.02,.16,0,.02,0-.11,0-.22-.01-.33-.02-.3-.11,.22,0-.03-.1,.2-.11,.23-.03,.08-.38,.32-.47,.42-.24,.28,.69-.38,.97-1.38,.54-2.05s-1.32-.94-2.05-.54c-1.81,1-1.09,3.36-.86,4.97l.78,5.33c.11,.78,1.14,1.28,1.85,1.05,.85-.28,1.17-1.01,1.05-1.85h0Z"/>
    <path class="cls-6" d="M95.46,55.27c-1.46,0-2.76,.71-4.03,1.36-1.15,.59-2.3,1.29-3.2,2.24-1.79,1.89-2.31,4.44-2.69,6.93-.12,.77,.19,1.65,1.05,1.85,.71,.16,1.72-.22,1.85-1.05,.16-1.05,.32-2.1,.62-3.13,.07-.24,.15-.48,.23-.71,0,0,.18-.43,.07-.19,.05-.11,.1-.22,.16-.34,.11-.22,.23-.44,.37-.64,.07-.1,.14-.21,.21-.31-.15,.2,.15-.17,.15-.17,.17-.19,.36-.38,.56-.55,0,0,.29-.24,.21-.18-.09,.07,.2-.14,.23-.16,.45-.31,.93-.59,1.42-.85s1-.52,1.5-.75c.4-.19,.88-.34,1.29-.35,.78,0,1.54-.69,1.5-1.5s-.66-1.5-1.5-1.5h0Z"/>
    <path class="cls-6" d="M86.13,63.17c-2.45,.03-4.8,1.35-5.98,3.52-.56,1.03-.95,2.3-.86,3.48,.07,.86,.41,1.66,1.19,2.12,.56,.33,1.26,.48,1.89,.65,1.36,.37,2.74,.66,4.14,.88,.77,.12,1.65-.19,1.85-1.05,.16-.72-.22-1.72-1.05-1.85-1.32-.2-2.63-.47-3.92-.82-.31-.08-.62-.17-.93-.26-.16-.05-.32-.09-.47-.15-.27-.09,.06,.03,.13,.09,.08,.07,.14,.17,.18,.27-.03-.14-.03-.15-.01-.03,0,.24,.01-.23,.02-.27,0-.11,0-.26,.03-.36-.11,.37,.02-.06,.04-.14,.06-.26,.14-.51,.23-.76-.12,.33,0-.01,.04-.09,.07-.15,.15-.29,.23-.43,.06-.1,.13-.2,.2-.31,.18-.28-.15,.15,.06-.08,.2-.21,.39-.41,.61-.61,.25-.23-.17,.09,.09-.07,.14-.09,.28-.18,.42-.27,.11-.06,.22-.12,.33-.17,.36-.18-.28,.08,.1-.04,.28-.09,.56-.17,.84-.23,.39-.09-.3,.01,.1-.02,.17-.01,.33-.02,.5-.02,.78,0,1.54-.68,1.5-1.5s-.66-1.51-1.5-1.5h0Z"/>
    <path class="cls-6" d="M93.37,73.24c-.29-1.81-.44-3.64-.46-5.48-.02-1.65-.11-3.56,.48-5.13,1.11-2.94,4.61-3.71,7.4-3.58,1.43,.07,3.48,.1,4.62,1.1s1.94,2.78,2.52,4.15c1.28,3.03,1.72,6.33,1.41,9.59-.08,.81,.75,1.5,1.5,1.5,.88,0,1.42-.69,1.5-1.5,.3-3.09-.06-6.27-1.07-9.21-.93-2.72-2.48-6.45-5.29-7.69-1.48-.65-3.23-.82-4.83-.93s-3.39,0-4.98,.52c-2.77,.9-5.17,2.97-5.87,5.88-.43,1.76-.43,3.67-.4,5.48,.03,2.04,.24,4.07,.56,6.09,.13,.8,1.13,1.25,1.85,1.05,.85-.23,1.18-1.04,1.05-1.85h0Z"/>
    <path class="cls-6" d="M94.96,73.51c-.3-3.17-.51-6.39-.42-9.58,.03-.87,.07-2.13,.95-2.58,1.1-.57,2.8-.29,3.99-.24,1.37,.06,3.1,0,4.38,.54,1.02,.43,1.51,1.81,1.92,2.75,1.18,2.67,1.9,5.57,2.15,8.47,.07,.81,.64,1.5,1.5,1.5,.76,0,1.57-.69,1.5-1.5-.24-2.78-.81-5.52-1.79-8.13-.9-2.4-1.98-5.24-4.68-6.05-1.37-.41-2.92-.46-4.33-.54s-2.81-.16-4.19,.02-2.57,.75-3.37,1.89c-.7,.99-.92,2.22-1,3.4-.22,3.32,.08,6.75,.39,10.06,.08,.81,.63,1.5,1.5,1.5,.75,0,1.58-.69,1.5-1.5h0Z"/>
    <path class="cls-6" d="M109.62,73.87c-.53-2.27-.18-4.64-.5-6.94-.34-2.41-1.53-4.48-3.59-5.82s-4.81-1.68-7.31-1.32c-1.24,.18-2.71,.41-3.72,1.21s-1.26,2.07-1.37,3.31c-.26,3.1-.3,6.23-.18,9.34,.08,1.92,3.08,1.93,3,0-.09-2.36-.09-4.72,.03-7.07,.03-.58,.06-1.16,.11-1.73,.03-.43,.01-.91,.17-1.3,.22-.54,1.56-.65,2.13-.75,1.84-.34,3.82-.18,5.44,.81,1.47,.9,2.18,2.39,2.37,4.07,.26,2.34-.02,4.69,.52,7.01,.44,1.88,3.33,1.08,2.89-.8h0Z"/>
    <path class="cls-6" d="M95.93,74.16v-.51c0-.21-.04-.4-.13-.58-.06-.19-.16-.35-.31-.48-.14-.15-.3-.25-.48-.31-.18-.09-.37-.14-.58-.13l-.4,.05c-.25,.07-.47,.2-.66,.39l-.23,.3c-.14,.23-.2,.49-.2,.76v.51c0,.21,.04,.4,.13,.58,.06,.19,.16,.35,.31,.48,.14,.15,.3,.25,.48,.31,.18,.09,.37,.14,.58,.13l.4-.05c.25-.07,.47-.2,.66-.39l.23-.3c.14-.23,.2-.49,.2-.76h0Z"/>
    <path class="cls-6" d="M96.8,74.67c.03-2.38,.04-4.76,.08-7.14,.01-.86,.05-1.84,.41-2.48s.79-.76,1.7-.73c1.74,.07,3.33,.65,4.24,2.19,1.04,1.76,1.05,3.94,1.09,5.96s3.03,1.93,3,0c-.04-2.08-.09-4.24-.89-6.2s-2.14-3.51-4.12-4.31c-1.75-.71-4.37-1.1-6.06-.06-1.85,1.13-2.32,3.29-2.37,5.31-.06,2.48-.06,4.97-.08,7.45-.02,1.93,2.98,1.93,3,0h0Z"/>
    <path class="cls-6" d="M105.37,72.28c-.21-.11,0,0-.02,.02-.04,.06-.1-.24-.05-.04,.04,.18-.13-.39-.03-.06-.05-.15-.09-.31-.12-.47-.01-.07-.02-.14-.04-.21,.03,.15,.01,.12,0-.01-.1-.97-.22-1.95-.37-2.91-.14-.89-.3-1.77-.49-2.64-.1-.46-.18-.94-.41-1.36-.29-.53-.78-.86-1.35-1.04-.82-.27-1.69-.44-2.54-.59-.93-.17-1.98-.43-2.92-.26-1.16,.22-1.68,1.27-1.71,2.36-.02,.9,.02,1.81,.03,2.71,.02,2.12,.05,4.25,.07,6.37,0,.78,.68,1.54,1.5,1.5s1.51-.66,1.5-1.5c-.02-1.67-.04-3.33-.06-5,0-.82-.02-1.63-.03-2.45,0-.39,0-.78-.01-1.18,0-.17,0-.35,0-.52s.02-.06,0-.06c.06,0-.67,.77-.69,.69,0,.01-.08,0,.08,.02,.08,.01,.16,.02,.23,.02,.15,.02,.25,.03,.36,.04,.41,.06,.82,.13,1.22,.21s.81,.17,1.21,.26c.19,.05,.37,.09,.55,.14,.09,.02,.19,.07,.28,.08,.29,.03-.12-.08-.21-.17-.08-.07-.14-.38-.17-.22-.01,.06,.05,.19,.06,.26,.04,.19,.08,.38,.12,.56,.09,.41,.17,.82,.24,1.22,.13,.71,.26,1.5,.34,2.16,.21,1.66,.18,3.73,1.89,4.63,.72,.38,1.63,.18,2.05-.54,.4-.68,.18-1.67-.54-2.05h0Z"/>
    <path class="cls-6" d="M98.18,75.05c-.14-2.09-.21-4.18-.22-6.28,0-.49,0-.98,0-1.47,0-.15,.09-1.59,.03-1.61,.09,.03-.26,.41-.27,.42-.12,.04-.1,.03,.07-.03,.1-.03,.2-.06,.3-.08-.25,.05,.29,0,.36,0,.18,.02,.2,.01,.06,0,.08,.01,.15,.03,.22,.05,.06,.01,.5,.17,.29,.08,.05,.02,.51,.3,.34,.17,.32,.24,.41,.42,.57,.69,.13,.23,.26,.7,.33,1.09,0,.04,.07,.47,.05,.29,.03,.23,.04,.46,.06,.69,.15,2.07,.15,4.16,.06,6.23-.04,.81,.72,1.5,1.5,1.5,.84,0,1.46-.69,1.5-1.5,.09-1.95,.08-3.9-.03-5.85-.11-1.79-.34-3.66-1.64-5.01-1.19-1.25-3.2-1.79-4.85-1.23-1.15,.39-1.83,1.18-1.93,2.4-.07,.94-.04,1.9-.04,2.84,0,2.2,.08,4.4,.22,6.59,.05,.81,.65,1.5,1.5,1.5,.77,0,1.55-.69,1.5-1.5h0Z"/>
    <path class="cls-6" d="M101.91,75.56l.07-5.31c.02-1.63,.17-3.44-.8-4.86-.44-.65-1.34-1-2.05-.54-.64,.42-1.01,1.36-.54,2.05,.33,.48,.38,.85,.4,1.49,.02,.74,0,1.48-.02,2.22l-.06,4.94c0,.78,.7,1.54,1.5,1.5s1.49-.66,1.5-1.5h0Z"/>
    <path class="cls-6" d="M98.31,65.99c-.06,.7-.11,1.4-.19,2.09,0,.05-.08,.63-.05,.39-.02,.16-.05,.31-.07,.47-.05,.34-.11,.67-.18,1.01-.27,1.37-.64,2.71-1.1,4.03-.26,.74,.29,1.67,1.05,1.85,.84,.19,1.57-.25,1.85-1.05,1-2.85,1.45-5.79,1.69-8.79,.06-.78-.74-1.53-1.5-1.5-.87,.04-1.43,.66-1.5,1.5h0Z"/>
    <path class="cls-6" d="M89.98,64.58l-.25-4.7c-.02-.36,0-.76-.06-1.12,0-.18,0-.16-.03,.04-.07,.18-.19,.32-.37,.43,.07-.04,.13-.08,.21-.12-.16,.07-.19,.08-.07,.03,.72-.28,1.44-.58,2.16-.87l-1.69-.69c-.06-.09-.09-.19-.09-.3,0,.17,0,.16,.02-.05,.03,.08-.08,.29-.11,.35,.12-.31-.04,.04-.07,.11-.08,.15-.17,.3-.26,.45-.34,.57-.62,1.17-.86,1.79-.46,1.2-.66,2.53-.6,3.82l2.95-.4c.02,.15,.01,.14,0,0,0-.09-.02-.18-.02-.27-.01-.2-.02-.41-.02-.61,0-.18,0-.36,.02-.54,0-.09,.02-.18,.02-.27,.01-.24-.06,.35,0-.07,.06-.36,.14-.71,.24-1.05,.06-.19,.14-.38,.2-.58,.07-.22-.09,.19,0-.02,.05-.1,.09-.2,.14-.31,.34-.7,.22-1.65-.54-2.05-.67-.36-1.69-.22-2.05,.54-.93,1.91-1.21,3.93-.91,6.03,.11,.74,.99,1.16,1.65,1.07,.71-.1,1.33-.72,1.3-1.47-.01-.34-.01-.67,.01-1,0-.07,.06-.55,.01-.2,.03-.18,.06-.35,.09-.53,.06-.31,.15-.61,.24-.91,.04-.13,.09-.25,.13-.38,.06-.16,.07-.17,0-.01,.04-.08,.07-.16,.11-.24,.26-.55,.63-1.06,.88-1.61,.44-.95,.5-1.82,.07-2.79-.24-.55-1.14-.91-1.69-.69-.84,.34-1.69,.67-2.52,1.02-.54,.23-1.01,.55-1.3,1.08s-.3,1.07-.27,1.64l.29,5.47c.04,.78,.66,1.54,1.5,1.5,.78-.03,1.54-.66,1.5-1.5h0Z"/>
    <path class="cls-6" d="M94.19,56.15c-.13-1.03-.37-1.98-.84-2.91s-1.18-1.45-2.16-1.75c-1.85-.58-3.78-.98-5.71-.56-3.15,.69-5.75,3.48-6.35,6.63-.15,.8,.22,1.62,1.05,1.85,.73,.2,1.69-.25,1.85-1.05,.39-2.05,1.83-3.8,3.76-4.4,1.12-.35,2.34-.2,3.61,.14,.36,.1,.72,.2,1.08,.31,.07,.02,.28,.16,.2,.08-.04-.04-.11-.11-.04,.02,.27,.52,.5,1.07,.57,1.65,.1,.8,.62,1.5,1.5,1.5,.74,0,1.6-.69,1.5-1.5h0Z"/>
    <path class="cls-6" d="M82.04,57.98c.01-.06,.16-.58,.06-.33,.07-.18,.18-.35,.29-.5-.14,.2,.2-.21,.24-.25,.07-.07,.14-.13,.22-.2-.11,.08-.09,.07,.05-.03,.76-.48,1.41-.69,2.32-.94,.48-.13,.96-.28,1.45-.35,.26-.04,.76-.04,1.03,.03,.64,.17,1.25,.68,1.83,1.18,.62,.53,1.52,.6,2.12,0,.54-.54,.62-1.59,0-2.12-.94-.8-1.93-1.62-3.15-1.95-1.36-.37-2.75-.05-4.07,.32-2.25,.63-4.78,1.8-5.28,4.35-.15,.77,.22,1.66,1.05,1.85,.74,.17,1.69-.22,1.85-1.05h0Z"/>
    <path class="cls-6" d="M91.23,54.28c-1.99-.61-4.18-.64-6.18-.04s-4.08,2.09-4.1,4.47c0,.78,.69,1.54,1.5,1.5s1.49-.66,1.5-1.5c0-.18,0-.18-.03,0,.01-.09,.03-.17,.06-.26,.06-.16,.05-.17,0-.01,.04-.08,.08-.16,.13-.24,.05-.08,.1-.15,.15-.22-.1,.13-.09,.13,.02,0,.05-.04,.45-.37,.23-.22,.16-.11,.32-.2,.49-.29,.05-.03,.42-.2,.16-.09,.36-.15,.75-.27,1.13-.36,.72-.18,1.13-.23,2.01-.21s1.24,.09,2.14,.37c.75,.23,1.67-.27,1.85-1.05,.19-.81-.24-1.6-1.05-1.85h0Z"/>
    <path class="cls-6" d="M83.82,60.25c.42-.23,.85-.45,1.28-.64,.04-.02,.09-.04,.13-.06,.1-.05,.06-.03-.14,.06,.09,0,.27-.11,.36-.14,.21-.08,.42-.16,.63-.23,.88-.3,1.78-.52,2.7-.66l-1.69-2.2c-.16,.23,.23-.26,.06-.07-.05,.05-.1,.1-.15,.15-.09,.08-.28,.19,.08-.05-.06,.04-.12,.08-.18,.12-.24,.16-.5,.28-.75,.41-.72,.36-1.46,.73-1.93,1.41-.81,1.16-.13,2.71,1.22,3.01,.44,.1,.91,.1,1.36,.12,.42,.02,.85,.03,1.27,.05,.78,.03,1.54-.71,1.5-1.5-.04-.84-.66-1.47-1.5-1.5-.69-.03-1.41-.01-2.1-.09l.4,.05c-.09-.01-.4-.12-.13,0,.17,.07,.3,.18,.41,.33,.06,.07,.11,.14,.13,.23,.05,.15,.06,.17,.04,.04l.05,.4v-.08c-.01,.13-.03,.27-.05,.4-.12,.23-.14,.27-.05,.13l-.12,.17c.19-.23-.3,.2-.03,0,.12-.09,.25-.16,.38-.24,.28-.15,.56-.29,.84-.43,.75-.38,1.38-.86,1.85-1.56,.34-.49,.22-1.22-.12-1.67-.4-.51-.96-.63-1.58-.54-1.99,.31-3.92,1-5.68,1.98-.69,.38-.97,1.38-.54,2.05s1.32,.95,2.05,.54h0Z"/>
    <path class="cls-6" d="M91.78,50.46c-2.02-.62-4.18-.84-6.28-.63-.41,.04-.76,.14-1.06,.44-.26,.26-.46,.69-.44,1.06,.03,.74,.66,1.59,1.5,1.5,.97-.1,1.94-.11,2.91-.02,.13,.01,.26,.03,.38,.04,.32,.03-.3-.05,.04,0,.24,.04,.47,.08,.7,.12,.49,.1,.97,.22,1.44,.37,.75,.23,1.67-.27,1.85-1.05s-.24-1.6-1.05-1.85h0Z"/>
    <path class="cls-6" d="M73.78,69.05v2.53c0,.88-.02,1.77,.13,2.64,.25,1.42,1.16,2.57,2.28,3.43,2.4,1.84,5.63,2.04,8.54,2.27,.78,.06,1.53-.73,1.5-1.5-.04-.86-.66-1.44-1.5-1.5-1.41-.11-2.57-.19-3.9-.49-.58-.13-1.16-.29-1.71-.51,.28,.11-.09-.04-.14-.07-.12-.06-.25-.12-.37-.19-.24-.13-.47-.28-.69-.44-.25-.18,.12,.14-.12-.1-.1-.09-.2-.18-.29-.27-.08-.08-.15-.16-.22-.24-.07-.08-.06-.07,.03,.05-.04-.05-.08-.11-.11-.16-.07-.11-.14-.22-.2-.33s-.1-.26-.03-.06c-.04-.12-.08-.25-.12-.38,0-.02-.07-.44-.05-.25-.07-.72-.03-1.46-.03-2.18v-2.25c0-.78-.69-1.54-1.51-1.5s-1.5,.66-1.5,1.5h0Z"/>
    <path class="cls-6" d="M97.72,56.02c.28-1.12,.47-2.26,.57-3.41,.09-1.07,.06-2.14,.15-3.2,.04-.46,.11-.9,.25-1.36,.03-.1,.06-.2,.1-.3-.06,.11-.04,.09,.03-.08,.09-.19,.2-.37,.31-.56,.11-.15,.12-.17,.05-.08,.07-.08,.14-.16,.21-.24,.05-.05,.45-.37,.29-.26,.06-.04,.53-.26,.32-.19,.19-.07,.4-.11,.6-.13,.8-.11,1.24-1.14,1.05-1.85-.24-.87-1.04-1.16-1.85-1.05-2.29,.31-3.8,2.59-4.18,4.71-.22,1.22-.21,2.45-.27,3.68s-.23,2.36-.52,3.52c-.2,.78,.25,1.63,1.05,1.85s1.65-.26,1.85-1.05h0Z"/>
    <path class="cls-6" d="M105.15,44.33c-1.53-.17-3.06,.09-4.46,.69-1.48,.63-2.38,1.68-2.94,3.17-1.05,2.79-1.48,5.88-1.44,8.85,.02,1.93,3.02,1.93,3,0-.03-2.5,.33-4.95,1.09-7.33,.16-.51,.26-.9,.57-1.32,.19-.26,.57-.49,.98-.66,1.03-.44,2.11-.52,3.21-.4,.81,.09,1.5-.75,1.5-1.5,0-.89-.69-1.41-1.5-1.5h0Z"/>
    <path class="cls-6" d="M99.22,57.69c-.17-1.29-.28-2.59-.34-3.89s-.14-2.59,0-3.85c.25-2.15,2.51-2.79,4.36-3.2,.79-.17,1.25-1.09,1.05-1.85-.22-.82-1.05-1.22-1.85-1.05-2.67,.59-5.53,1.85-6.34,4.73-.4,1.42-.3,3.02-.25,4.48,.04,1.55,.17,3.09,.37,4.62,.1,.8,.62,1.5,1.5,1.5,.73,0,1.6-.69,1.5-1.5h0Z"/>
    <path class="cls-6" d="M106.46,45.19c-.25,.16-.5,.32-.76,.46-.12,.06-.24,.12-.36,.18-.44,.22,.22-.07-.23,.1-.62,.24-1.28,.35-1.86,.69-.52,.31-.86,.77-1.25,1.22s-.85,.84-1.25,1.28c-1.77,1.91-2.05,4.4-2.16,6.89-.03,.78,.71,1.54,1.5,1.5,.84-.04,1.46-.66,1.5-1.5,.02-.52,.05-1.03,.09-1.54,.01-.13,.03-.26,.04-.39,.03-.28-.06,.35,.02-.14,.04-.25,.09-.5,.15-.75,.05-.22,.12-.44,.19-.65,.02-.07,.12-.32,.04-.13,.05-.12,.11-.23,.16-.34,.09-.17,.28-.48,.33-.55,.05-.06,.34-.38,.47-.51,.36-.37,.75-.71,1.08-1.11,.15-.18,.3-.38,.46-.55,.03-.03,.29-.25,.16-.17-.15,.1,.27-.1,.04-.01,.57-.23,1.16-.37,1.72-.62,.49-.22,.96-.48,1.41-.78,.65-.44,1-1.34,.54-2.05-.42-.65-1.35-1-2.05-.54h0Z"/>
    <path class="cls-6" d="M101.4,56.39c-.34-1.8-.54-3.4-.63-5.29,0-.04-.04-.59-.01-.6,0,.08-.02,.16-.07,.22,.09-.15,.09-.16,0-.03,.12-.14,.28-.27,.42-.38-.17,.14,.26-.18,.3-.21,.34-.22,.69-.41,1.05-.59,.16-.07,.18-.08,.06-.03,.09-.04,.19-.07,.28-.11,.19-.07,.38-.13,.57-.18,.75-.22,1.3-1.07,1.05-1.85s-1.04-1.28-1.85-1.05c-.99,.28-1.96,.71-2.8,1.3-1.05,.73-1.95,1.56-2.03,2.92-.06,1.02,.11,2.1,.22,3.11,.13,1.2,.31,2.39,.53,3.58,.14,.77,1.12,1.28,1.85,1.05,.83-.27,1.2-1.02,1.05-1.85h0Z"/>
    <path class="cls-6" d="M108.19,46.14l-3.29,1.36c-1.14,.47-2.2,.94-2.81,2.08-.52,.95-.81,2.07-1.02,3.12-.24,1.18-.37,2.38-.37,3.59,0,.78,.69,1.54,1.5,1.5s1.5-.66,1.5-1.5c0-.48,.02-.96,.06-1.44,0-.11,.02-.21,.03-.32,.05-.51-.02,.13,.02-.16,.03-.24,.07-.48,.12-.71,.09-.47,.2-.94,.34-1.4,.07-.23,.14-.46,.22-.69,.03-.09,.07-.18,.1-.27,.06-.22-.15,.28,.04-.08,.04-.08,.09-.16,.13-.24,.06-.11,.1-.14,0-.03,0,0,.28-.26,.15-.16-.12,.1,.1-.06,.13-.07,.18-.1,.36-.19,.55-.27-.27,.12,.08-.03,.13-.05l.32-.13,2.97-1.23c.72-.3,1.32-1.01,1.05-1.85-.22-.7-1.07-1.37-1.85-1.05h0Z"/>
    <path class="cls-6" d="M103.73,56.24c-.06-.15-.12-.31-.16-.47-.02-.08-.03-.16-.05-.24-.05-.18,.02,.38,0,.05,0-.17-.02-.33-.01-.5,0-.07,0-.13,.01-.2,.02-.34-.08,.34,0,0,.03-.15,.07-.29,.11-.44,0-.02,.06-.23,.08-.24-.03,0-.15,.32-.01,.04,.07-.15,.16-.29,.25-.43,.02-.03,.04-.05,.06-.08,.07-.09,.04-.05-.08,.11,0-.03,.15-.16,.17-.19,.11-.11,.25-.29,.39-.36-.26,.11-.05,.04,.03-.01s.17-.11,.25-.17c.35-.22,.71-.42,1.07-.63,.78-.45,1.56-.89,2.34-1.34,.68-.39,.97-1.38,.54-2.05s-1.32-.96-2.05-.54c-.86,.49-1.72,.98-2.58,1.47s-1.7,.98-2.32,1.72c-1.18,1.44-1.65,3.5-.95,5.27,.15,.38,.33,.68,.69,.9,.32,.19,.8,.27,1.16,.15,.7-.23,1.36-1.07,1.05-1.85h0Z"/>
    <path class="cls-6" d="M109.53,47.63c-1.71,.84-3.43,1.68-5.13,2.53-.5,.25-.91,.57-1.22,1.04-.27,.41-.41,.9-.52,1.36-.25,1.01-.41,2.05-.51,3.08-.08,.78,.75,1.53,1.5,1.5,.88-.04,1.42-.66,1.5-1.5,.01-.11,.02-.22,.03-.32,.02-.14,.03-.27,0-.05,.03-.21,.06-.43,.1-.64,.07-.41,.15-.81,.25-1.21,.04-.18,.08-.35,.14-.53,.02-.07,.16-.42,0-.05,.06-.16,.03-.05-.05,.04,.16-.21-.15,.07-.03,.02,.07-.03,.15-.08,.22-.12,.19-.1,.38-.19,.57-.28,1.55-.76,3.1-1.53,4.65-2.29,.71-.35,.96-1.4,.54-2.05-.47-.72-1.3-.91-2.05-.54h0Z"/>
    <path class="cls-6" d="M105.15,56.03c0-.18,.02-.37,.04-.55s-.06,.33,0,.05c.02-.1,.04-.2,.06-.3,.07-.33,.18-.64,.29-.96s-.15,.3,0-.01c.04-.07,.07-.15,.11-.22,.08-.16,.18-.32,.27-.48,.07-.1,.18-.35,.28-.41-.12,.16-.15,.19-.08,.11,.03-.04,.06-.08,.1-.12,.05-.06,.11-.13,.17-.19,.11-.12,.23-.23,.35-.35,.06-.06,.12-.11,.18-.16,.04-.03,.08-.06,.11-.09,.09-.07,.05-.04-.11,.08,0-.06,.35-.24,.41-.28,.15-.1,.31-.18,.47-.27,.07-.04,.15-.07,.22-.11,.04-.02,.09-.04,.13-.06,.1-.05,.06-.03-.13,.06,.15-.03,.31-.12,.46-.16s.31-.09,.47-.13c.1-.02,.19-.04,.29-.06,.1-.02,.42-.05-.01,0,.41-.05,.76-.14,1.06-.44,.26-.26,.46-.69,.44-1.06-.03-.73-.67-1.6-1.5-1.5-1.88,.22-3.66,1-4.97,2.4s-2.06,3.27-2.12,5.2c-.02,.79,.71,1.54,1.5,1.5,.83-.04,1.47-.66,1.5-1.5h0Z"/>
    <path class="cls-6" d="M109.15,49.77c.05,.38,.24-.54,.11-.29-.04,.07-.04,.06,.01-.01,.07-.09,.05-.09-.05,.02,.04-.08,.19-.13,.02-.04-.08,.04-.16,.09-.24,.14-.17,.09-.34,.16-.51,.24-.2,.09,.34-.14,0,0-.07,.03-.14,.06-.21,.09-.82,.34-1.66,.7-2.26,1.4-.71,.83-.91,1.81-1.1,2.86s-.36,2.02-.54,3.03l2.51-.66c-.05-.05-.28-.32-.09-.05-.07-.1-.13-.2-.18-.31,.12,.22,.03,.04,0-.1-.08-.26-.02,.13,0-.02,0-.06,0-.12,0-.18-.03,.18-.03,.21-.01,.1,.03-.09,.05-.19,.08-.28-.1,.34,0,.03,.05-.05,.04-.07,.26-.32,.03-.07,.16-.18,.32-.35,.5-.51,.03-.03,.29-.24,.13-.11s.15-.11,.19-.14c.45-.32,.92-.62,1.39-.93,.12-.08,.24-.15,.36-.23,.17-.11,.08-.03-.06,0-.16,.02-.32-.02-.47-.11-.28-.33-.38-.42-.27-.25,.05,.09,.04,.07-.03-.08l.04,.13c.04,.18,.04,.18,.02,0v.14c0,.14,0,.27,0,.41,.04-.32-.04,.11-.05,.15-.04,.14-.08,.27-.13,.4,.07-.2,0,0-.04,.09-.06,.13-.13,.26-.2,.39-.13,.23-.27,.46-.41,.69-.15,.25-.31,.49-.45,.75-.07,.12-.17,.25-.21,.39l-.05,.09c.13-.18,.31-.31,.53-.38h.8c.32,.09,.53,.28,.62,.55l-.03-.12c.02,.2,.02,.21,0,.03v-.12c0-.3,.02-.61,.05-.91s.06-.61,.1-.92c.01-.11,.01-.1,0,.02,.01-.08,.02-.15,.03-.23,.03-.18,.06-.35,.09-.53,.13-.77-.21-1.65-1.05-1.85-.73-.17-1.7,.22-1.85,1.05-.16,.94-.29,1.89-.35,2.84s.06,2.09,.88,2.73c.57,.44,1.35,.52,1.99,.15,.46-.27,.71-.7,.96-1.15,.39-.72,.89-1.39,1.23-2.14,.41-.91,.64-1.84,.51-2.84-.16-1.16-.91-2.32-2.19-2.35-1.01-.03-1.8,.6-2.6,1.13-.64,.42-1.29,.85-1.83,1.4-.72,.73-1.21,1.65-1.26,2.69s.4,2.09,1.16,2.78,2.3,.52,2.51-.66c.18-1.04,.37-2.07,.55-3.11,.08-.45,.21-.9,.28-1.34,.02-.14-.1,.13,.03-.08,.03-.04,.23-.3,.08-.14s.09-.07,.1-.09c.17-.2-.16,.07-.02,0,.31-.16,.6-.35,.92-.49,.34-.15-.19,.08,0,0,.09-.04,.17-.07,.26-.11,.26-.11,.52-.21,.77-.33,.95-.45,2.03-1.35,1.88-2.53-.1-.77-.62-1.54-1.5-1.5-.72,.03-1.61,.67-1.5,1.5h0Z"/>
    <path class="cls-6" d="M114.91,54.41c.56,.89,1.07,1.82,1.44,2.81,.2,.52,.37,1.05,.51,1.59,.12,.46,.29,.96,.17,1.44-.21,.83-1.16,1.58-1.79,2.09-.8,.64-1.7,1.17-2.57,1.7l1.82,.23,.17,.17c-.12-.8-1.13-1.24-1.85-1.05-.86,.24-1.17,1.04-1.05,1.85,.07,.47,.32,.8,.6,1.16,.41,.5,1.29,.55,1.82,.23,1.13-.69,2.24-1.39,3.25-2.23s2.12-2.01,2.49-3.35c.39-1.43-.09-2.98-.57-4.33s-1.09-2.62-1.85-3.82c-1.03-1.63-3.63-.12-2.59,1.51h0Z"/>
    <path class="cls-6" d="M113.6,54.5c.32,1.69,.47,3.23,.02,4.89-.23,.84-.54,1.66-.87,2.46-.29,.71-.54,1.4-1.03,2.05s-.1,1.68,.54,2.05c.77,.45,1.56,.11,2.05-.54,.58-.76,.9-1.71,1.26-2.58,.38-.92,.74-1.86,.99-2.83,.55-2.14,.33-4.16-.07-6.29-.15-.8-1.11-1.25-1.85-1.05-.83,.23-1.2,1.05-1.05,1.85h0Z"/>
    <path class="cls-6" d="M116.12,56.86c-.2-.11-.23-.12-.09-.04-.12-.06-.21-.14-.27-.26,.04,.06,.07,.12,.1,.18-.08-.2-.09-.22-.03-.07,.08,.29,.2,.62,.21,.92,0-.4,0,.14,.01,.21,.01,.16,.02,.33,.02,.49,0,.31-.02,.62-.05,.92-.01,.11,0,.08,.01-.09-.01,.08-.03,.16-.04,.24-.03,.16-.07,.32-.11,.48-.08,.32-.19,.63-.31,.94,.13-.34-.07,.14-.1,.2-.07,.15-.15,.29-.23,.43s-.17,.28-.26,.42c-.05,.07-.09,.14-.14,.2,.06-.11,.14-.2,.23-.27l.76-.2,.78,.33,.39,.66-.02-.08c-.18-.77-1.1-1.29-1.85-1.05-.8,.26-1.24,1.03-1.05,1.85,.25,1.09,1.55,1.59,2.51,1.08,.54-.29,.88-.81,1.19-1.31,.54-.89,.94-1.91,1.13-2.94,.21-1.14,.22-2.23,.03-3.37s-.74-2.43-2.01-2.77c-.76-.2-1.66,.25-1.85,1.05s.24,1.63,1.05,1.85h0Z"/>
    <path class="cls-6" d="M112.77,54.36c-.07,.98-.11,1.64-.46,2.6-.03,.08-.13,.31-.05,.12-.04,.09-.08,.18-.13,.27-.1,.2-.21,.39-.32,.58s-.24,.38-.36,.56c-.06,.08-.12,.16-.17,.24-.14,.2,0,0-.09,.11-.56,.69-1.18,1.33-1.81,1.95-.7,.68-1.23,1.28-2.02,1.63-.72,.32-.94,1.43-.54,2.05,.48,.75,1.28,.88,2.05,.54,1.03-.45,1.84-1.33,2.63-2.1,.74-.72,1.44-1.46,2.07-2.28,.67-.87,1.21-1.79,1.61-2.82,.42-1.1,.51-2.3,.59-3.47,.06-.78-.73-1.53-1.5-1.5-.86,.04-1.44,.66-1.5,1.5h0Z"/>
    <path class="cls-6" d="M111.31,55.8c-.18,.18-.37,.35-.57,.51l.3-.23c-.38,.29-.79,.53-1.23,.71l.36-.15c-.44,.18-.9,.31-1.37,.37l.4-.05c-.07,0-.15,.02-.22,.02-.41,.04-.76,.14-1.06,.44-.26,.26-.46,.69-.44,1.06s.14,.79,.44,1.06c.28,.25,.67,.48,1.06,.44,.44-.04,.89-.1,1.32-.22s.85-.29,1.26-.48c.7-.33,1.34-.81,1.88-1.36,.27-.28,.44-.67,.44-1.06,0-.37-.16-.81-.44-1.06s-.66-.46-1.06-.44-.78,.15-1.06,.44h0Z"/>
    <path class="cls-6" d="M107.48,59.08c.86,2.51,1.52,5.07,1.99,7.68,.14,.77,1.12,1.28,1.85,1.05,.83-.27,1.2-1.02,1.05-1.85-.47-2.61-1.13-5.17-1.99-7.68-.25-.74-1.04-1.31-1.85-1.05-.73,.24-1.32,1.05-1.05,1.85h0Z"/>
    <path class="cls-6" d="M112.03,61.47c.09,.23,.15,.46,.18,.7l-.05-.4c.04,.3,.04,.6,0,.9l.05-.4c-.04,.27-.11,.53-.21,.78l.15-.36c-.05,.12-.11,.25-.18,.36l2.36-.3s-.04-.04-.05-.07l.23,.3c-.07-.09-.12-.19-.17-.29l.15,.36c-.04-.11-.07-.21-.09-.33l.05,.4c-.01-.11-.01-.22,0-.34l-.05,.4s.02-.08,.02-.12l-1.45,1.1h.03c-.13-.02-.27-.03-.4-.05,.03,0,.06,.01,.09,.02l-.36-.15s.05,.03,.08,.04l-.3-.23s.06,.05,.08,.08l-.23-.3s.04,.07,.06,.11l-.15-.36s.02,.08,.03,.12l-.05-.4s0,.06,0,.09l.05-.4s-.01,.08-.03,.11l.15-.36s-.02,.04-.03,.05l.23-.3-.02,.02,1.46-.39h-.03c.12,.04,.24,.09,.36,.14-.02,0-.04-.02-.06-.04l.3,.23s-.03-.03-.05-.05l.23,.3s-.03-.04-.03-.06l.15,.36s-.02-.06-.03-.1l.05,.4s0-.04,0-.07l-.05,.4s0-.04,.02-.06c.12-.35,.03-.84-.15-1.16s-.54-.61-.9-.69c-.38-.09-.81-.07-1.16,.15s-.56,.51-.69,.9c-.03,.09-.03,.17-.04,.26-.01,.1-.03,.17-.03,.27,0,.29,.09,.6,.23,.85,.08,.14,.18,.28,.3,.4,.25,.25,.44,.32,.76,.45,.45,.17,1.16-.01,1.46-.39,.25-.31,.3-.37,.44-.74,.04-.1,.04-.2,.06-.31,.06-.42-.03-.78-.21-1.16-.05-.1-.11-.17-.18-.26s-.12-.17-.2-.24c-.37-.32-.76-.48-1.25-.51l-.4,.05c-.2,.05-.37,.14-.51,.27-.25,.19-.46,.46-.54,.78-.11,.47-.12,.93,0,1.41s.36,.85,.67,1.2,.82,.47,1.26,.41,.86-.31,1.1-.72c.37-.65,.55-1.34,.62-2.08,.02-.24,.01-.48-.02-.72-.05-.38-.1-.74-.24-1.09-.05-.2-.14-.37-.27-.51-.11-.16-.25-.29-.42-.39-.32-.19-.8-.27-1.16-.15s-.71,.34-.9,.69-.29,.78-.15,1.16h0Z"/>
    <path class="cls-6" d="M115.65,52.62c.33,1.03,.67,2.05,1.15,3.03,.39,.8,.81,1.46,.94,2.37,.27,1.99,.16,4.08-.2,6.04-.15,.8,.22,1.62,1.05,1.85,.73,.2,1.7-.25,1.85-1.05,.42-2.26,.57-4.56,.31-6.84-.14-1.2-.46-2.23-1.04-3.29-.5-.93-.83-1.89-1.15-2.9-.58-1.83-3.48-1.05-2.89,.8h0Z"/>
    <path class="cls-6" d="M120.14,65.06c.78-2.22,1.21-4.55,1.31-6.9s-.09-4.82-1.05-7c-.32-.74-1.41-.91-2.05-.54-.77,.45-.86,1.31-.54,2.05,.75,1.72,.72,3.89,.62,5.73-.11,2.01-.53,3.97-1.19,5.86-.27,.76,.3,1.64,1.05,1.85,.83,.23,1.58-.28,1.85-1.05h0Z"/>
    <path class="cls-6" d="M117.55,52.04c2.88,2.84,3.13,7.13,2.39,10.89-.16,.79,.22,1.62,1.05,1.85,.74,.2,1.69-.25,1.85-1.05,.94-4.82,.52-10.19-3.16-13.81-1.38-1.36-3.5,.76-2.12,2.12h0Z"/>
    <path class="cls-6" d="M122.88,63.55c0-.35,.25-.71,.46-1.06,.31-.54,.58-1.1,.79-1.68,.42-1.16,.62-2.44,.78-3.66,.34-2.6-.79-4.83-2.11-6.99-1.01-1.64-3.61-.14-2.59,1.51,.55,.89,1.14,1.8,1.48,2.8s.35,1.92,.16,2.96-.33,2.11-.81,3.03c-.53,1.02-1.12,1.9-1.16,3.09-.05,1.93,2.95,1.93,3,0h0Z"/>
    <path class="cls-6" d="M119.89,51.47c.96,1.73,1.62,3.57,2,5.51,.18,.93,.28,1.87,.31,2.83,.02,.51,.01,1.01-.01,1.52,0,.2-.06,.41-.04,.6,0-.11-.01-.07-.05,.11,.19-.26,.2-.3,.02-.12-.61,.53-.54,1.58,0,2.12,.61,.61,1.51,.53,2.12,0,.98-.85,.96-2.29,.97-3.48,.01-1.25-.11-2.5-.31-3.74-.39-2.41-1.24-4.74-2.42-6.87-.94-1.69-3.53-.18-2.59,1.51h0Z"/>
    <path class="cls-6" d="M114.35,65.62c-1.49,2.76-2.98,5.52-4.48,8.27l2.74,.36c-.1-.38-.11-.69-.09-1.18s.06-.96,.11-1.44c.08-.91,.18-1.77,.31-2.6,.07-.44,.18-.89,.22-1.33,.06-.17,.05-.2,0-.08-.28,.23-.31,.28-.09,.14-.13,.05-.1,.04,.1-.04,.11-.05,.23-.09,.34-.14,.92-.36,1.84-.73,2.75-1.09,.73-.29,1.32-1.02,1.05-1.85-.23-.7-1.06-1.36-1.85-1.05-1.06,.42-2.12,.84-3.18,1.26-.69,.28-1.33,.57-1.72,1.24-.31,.53-.37,1.17-.46,1.76-.19,1.19-.34,2.38-.45,3.58s-.24,2.42,.07,3.6,2.13,1.5,2.74,.36c1.49-2.76,2.98-5.52,4.48-8.27,.37-.69,.19-1.67-.54-2.05s-1.65-.2-2.05,.54h0Z"/>
    <path class="cls-6" d="M116.47,64.06l-1.66,3.8c-.49,1.12-.91,2.31-1.61,3.32-.08,.12,.08-.07-.09,.1-.1,.11-.2,.21-.31,.32l-.11,.1c.09-.07,.09-.07,0-.01-.12,.08-.25,.15-.38,.22-.08,.04-.3,.13-.1,.05-.14,.05-.27,.1-.41,.14-.26,.08-.53,.13-.79,.18-1.11,.21-2.25,.28-3.32,.67-.73,.27-1.31,1.03-1.05,1.85,.23,.72,1.06,1.34,1.85,1.05,1.14-.42,2.36-.46,3.54-.71,1.29-.27,2.51-.87,3.35-1.9s1.34-2.28,1.87-3.51l1.81-4.15c.31-.72,.24-1.64-.54-2.05-.65-.34-1.72-.23-2.05,.54h0Z"/>
    <path class="cls-6" d="M107.85,76.07c2.74,.28,5.56,.43,8.11-.84,2.15-1.07,3.76-3.1,4.44-5.39,.23-.78-.28-1.63-1.05-1.85s-1.61,.27-1.85,1.05c-.49,1.61-1.6,2.89-3.21,3.67-.03,.02-.23,.1-.09,.04-.12,.05-.25,.09-.38,.13-.28,.09-.57,.17-.86,.23-.49,.1-.97,.14-1.48,.16-1.21,.04-2.43-.08-3.63-.2-.81-.08-1.5,.75-1.5,1.5,0,.88,.69,1.42,1.5,1.5h0Z"/>
    <path class="cls-6" d="M117.42,69.6c.03,.08,.05,.16,.07,.24,.06,.23,0,.09,0-.05,0,.16,.02,.34,.02,.5,0,.33,.08-.33,0,0-.02,.08-.03,.16-.06,.24s-.05,.16-.07,.24c-.09,.26,.11-.19,.01-.04-.04,.07-.08,.15-.12,.22-.03,.04-.16,.3-.05,.09s-.03,.03-.08,.08c-.06,.07-.13,.13-.2,.19-.21,.19-.01,.09,0,.01,0,.03-.26,.18-.28,.19-.17,.11-.34,.21-.5,.31-1.57,.95-3.15,1.89-4.72,2.83-.67,.4-.98,1.37-.54,2.05s1.33,.97,2.05,.54c1.74-1.05,3.51-2.05,5.22-3.14,.96-.61,1.66-1.38,2.07-2.44,.34-.89,.36-1.95,.07-2.85-.24-.75-1.05-1.3-1.85-1.05-.75,.24-1.31,1.05-1.05,1.85h0Z"/>
    <path class="cls-6" d="M112.32,77.51c2.21-.64,4.54-.73,6.63-1.79s3.48-2.95,4.06-5.1c.2-.76-.25-1.66-1.05-1.85s-1.63,.24-1.85,1.05c-.06,.21-.12,.42-.2,.62-.05,.15,.07-.13-.04,.11-.04,.09-.08,.17-.13,.26-.11,.21-.23,.42-.37,.63-.05,.08-.11,.16-.17,.24,.12-.17-.03,.03-.08,.1-.14,.17-.29,.32-.45,.48-.09,.08-.18,.17-.27,.24-.02,.02-.23,.19-.13,.11-.21,.16-.76,.49-1.15,.66,.14-.06-.04,.02-.09,.03-.13,.05-.25,.09-.38,.14-.23,.08-.46,.15-.69,.21-.47,.13-.95,.23-1.43,.32-1.02,.2-2.04,.37-3.04,.65-.75,.22-1.3,1.07-1.05,1.85s1.04,1.28,1.85,1.05h0Z"/>
    <path class="cls-6" d="M121.16,70.47c.03,.06,.07,.13,.1,.19l-.07-.16c.06,.09,.09,.25,.12,.35s.06,.21,.08,.31c.01,.06,.04,.41,.04,.17,0-.26,0,.18,0,.23,0,.11,0,.21,0,.32,0,.08,.02,.27-.02,.32l.03-.19c-.01,.07-.02,.14-.04,.21-.04,.21-.1,.42-.17,.62-.02,.05-.04,.1-.06,.15-.04,.1-.02,.07,.05-.11-.04,.03-.12,.25-.14,.29-.08,.15-.2,.44-.34,.54,.27-.2,.04-.06-.04,.03-.08,.09-.17,.18-.26,.27-.04,.03-.32,.25-.14,.12s-.15,.09-.19,.12c-.11,.07-.23,.13-.35,.19-.06,.03-.12,.06-.18,.09,.16-.06,.15-.06,0,0-.51,.18-1.02,.32-1.55,.42-.28,.05-.56,.1-.84,.15-.16,.02-.31,.05-.47,.07-.03,0-.48,.06-.22,.03-.68,.09-1.35,.15-2.03,.2-.78,.06-1.54,.65-1.5,1.5,.03,.77,.66,1.56,1.5,1.5,1.54-.11,3.1-.28,4.62-.61,1.33-.29,2.66-.83,3.62-1.81,1.81-1.85,2.22-4.75,1.03-7.03-.36-.7-1.4-.96-2.05-.54-.71,.46-.92,1.31-.54,2.05h0Z"/>
    <path class="cls-6" d="M114.09,78.44c1.45,.07,2.9,.07,4.35,0,1.33-.06,3.02,.02,4.17-.76,.64-.43,1.02-1.05,1.34-1.73,.34-.72,.66-1.45,.93-2.2,.52-1.46,.7-2.94,.46-4.47-.12-.8-1.13-1.24-1.85-1.05-.86,.24-1.17,1.04-1.05,1.85,.04,.26,.01,1.05-.04,1.31-.1,.56-.26,1.11-.46,1.64s-.36,.89-.59,1.39c-.11,.24-.22,.52-.38,.73,.12-.16-.17,.15-.04,.03,.1-.09-.27,.08,0,0-.09,.03-.19,.05-.28,.08-.44,.11,.14,0-.11,.02-.29,.03-.59,.05-.88,.08-.6,.04-1.19,.08-1.79,.1-1.26,.04-2.52,.03-3.78-.03-.78-.04-1.54,.72-1.5,1.5,.04,.84,.66,1.46,1.5,1.5h0Z"/>
    <rect class="cls-5" x="9.44" y="48" width="112.97" height="75.37"/>
    <path class="cls-1" d="M146.86,86.37c-6.39,33.65-34.11,58.64-66.5,61-28.11,2.05-55.44-13.27-69.5-39,.24-.44,.59-1.14,1-2,1.61-3.43,2.04-5.49,3-8,.9-2.37,1.83-3.97,3-6,1.99-3.45,7.27-12.59,17-15,1.98-.49,5.35-1.33,9,0,2.46,.89,3.39,2.17,10,10,4.21,4.98,6.18,7.25,9,10,2.72,2.66,4.12,4.01,6,5,5.09,2.7,10.15,2.21,12,2,2.32-.26,5.73-.63,9-3,5.94-4.29,6.87-11.83,7-13,.68-6.31-2.06-10.14,0-12,1.4-1.26,3.98-.7,6,0-.72,2.67-2.46,10.47,1,18,1.52,3.32,3.59,5.56,4,6,1.22,1.3,3.68,3.87,7.78,5.25,1.57,.53,2.83,.71,3.22,.75,4.1,.4,7.33-.87,10-2,10.44-4.42,15.92-13.87,18-18Z"/>
    <path class="cls-4" d="M11.36,108.87c.43-3.15,3.26-21.79,17.91-29.52,2.99-1.58,7.59-3.99,12.81-2.85,6,1.32,7.13,6.1,18.5,17.08,5.53,5.34,8.39,7.9,12.81,9.25,1.83,.56,5.77,1.71,10.45,.35,4.32-1.26,6.89-3.97,7.83-4.98,5.36-5.79,5.62-13.6,4.27-18.5-.82-2.96-1.83-3.44-2.14-3.56-2.43-.96-4.43,3.34-9.25,4.27-3.4,.65-8.12-.39-10.45-3.91-2.47-3.73-.86-8.15-.71-8.54,.26-.68,1.39-3.63,4.27-4.98,3.68-1.73,7.73-.28,7.83-.71,.12-.53-6.45-1.04-7.35-3.92-1.14-3.65,6.85-11.08,11.62-9.6,3,.93,4.32,5.28,4.98,4.98,.63-.28-1.5-3.78-.23-6.77,1.25-2.96,5.37-4.37,8.54-4.27,4.35,.13,8.8,3.15,9.48,6.77,.66,3.5-2.32,7.02-2.14,7.12,.2,.1,1.9-4.73,6.18-6.77,.77-.36,2.9-1.38,4.98-.71,4.71,1.52,6.83,11.01,3.56,14.95-2.29,2.76-6.94,2.49-6.89,3.21,.06,.79,6.26-.43,7.83,2.14,1.46,2.38-1.15,7.84-5.21,9.6-3.37,1.46-7.1,.08-9.25-.71-4.53-1.67-5.36-3.73-6.89-3.19-2.94,1.02-3.34,9.95-.94,16.72,.62,1.74,2.24,6.15,6.64,9.62,.3,.23,2.48,2.01,4.98,2.85,10.15,3.4,21.26-6.39,22.06-7.12,9.75-8.82,10.39-21.95,10.68-27.76,1.26-25.92-16.24-44.63-18.5-46.97C110.54,2.63,84.98,1.22,73.72,1.53c-2.4,.07-4.15,.2-4.6,.24C51.45,3.34,25.86,13.05,11.36,37.87-1.62,60.08-1.26,86.79,9.36,107.87c14.04,27.87,46.14,46.16,78.75,40.15,35.33-6.5,61.79-39.75,60.25-78.15"/>
  </g>
</svg>