<?xml version="1.0" encoding="UTF-8"?>
<svg id="Ebene_2" data-name="Ebene 2" xmlns="http://www.w3.org/2000/svg" viewBox="0 0 38.89 52.72">
  <defs>
    <style>
      .cls-1 {
        fill: #ba5313;
      }

      .cls-2 {
        fill: #fff;
        stroke: #171614;
        stroke-linecap: round;
        stroke-linejoin: round;
      }

      .cls-3 {
        fill: #006130;
      }
    </style>
  </defs>
  <g id="Ebene_1-2" data-name="Ebene 1">
    <path class="cls-2" d="M.5,10.53c.03,7.92,.06,15.85,.1,23.77,5.85-2.42,11.7-4.84,17.56-7.26C12.27,21.53,6.38,16.03,.5,10.53Z"/>
    <circle class="cls-2" cx="26.17" cy="11" r="10.5"/>
    <rect class="cls-2" x="16.67" y="30.5" width="18" height="18" transform="translate(33.83 -6.9) rotate(42.99)"/>
    <path class="cls-1" d="M25.97,19.57c4.05-1.09,7.29-4.19,8.63-8.15,.25-.74-.29-1.67-1.05-1.85-.83-.19-1.57,.25-1.85,1.05-.05,.14-.09,.27-.15,.41-.03,.07-.06,.14-.08,.21-.05,.13,.16-.36,.02-.05-.17,.37-.35,.74-.56,1.09-.11,.2-.23,.39-.36,.58-.07,.1-.13,.2-.2,.3-.02,.03-.27,.36-.07,.1-.35,.45-.74,.87-1.16,1.25-.2,.19-.42,.37-.63,.54-.08,.07-.07,.06,.04-.03-.05,.04-.1,.08-.16,.12-.12,.09-.24,.17-.37,.25-.39,.25-.79,.48-1.21,.69-.09,.05-.19,.09-.28,.13-.05,.02-.09,.04-.14,.06-.11,.05-.06,.03,.13-.06-.14,0-.36,.14-.5,.19-.29,.1-.58,.19-.88,.27-.76,.2-1.3,1.08-1.05,1.85s1.03,1.27,1.85,1.05h0Z"/>
    <g>
      <path class="cls-3" d="M4.4,29.82c2.59-1.27,5.18-2.55,7.77-3.82"/>
      <path class="cls-3" d="M5.16,31.11c2.59-1.27,5.18-2.55,7.77-3.82,.71-.35,.96-1.41,.54-2.05-.47-.72-1.3-.91-2.05-.54-2.59,1.27-5.18,2.55-7.77,3.82-.71,.35-.96,1.41-.54,2.05,.47,.72,1.3,.91,2.05,.54h0Z"/>
    </g>
    <g>
      <path class="cls-3" d="M26.02,32.99c2.02,2.06,4.05,4.11,6.07,6.17"/>
      <path class="cls-3" d="M24.95,34.05c2.02,2.06,4.05,4.11,6.07,6.17,.55,.56,1.58,.59,2.12,0s.59-1.52,0-2.12c-2.02-2.06-4.05-4.11-6.07-6.17-.55-.56-1.58-.59-2.12,0s-.59,1.52,0,2.12h0Z"/>
    </g>
  </g>
</svg>