<?xml version="1.0" encoding="UTF-8"?>
<svg id="Ebene_2" data-name="Ebene 2" xmlns="http://www.w3.org/2000/svg" viewBox="0 0 60.87 49.71">
  <defs>
    <style>
      .cls-1 {
        fill: #ba5313;
      }

      .cls-2 {
        stroke-miterlimit: 10;
      }

      .cls-2, .cls-3 {
        fill: none;
        stroke: #171614;
      }

      .cls-3 {
        stroke-linecap: round;
        stroke-linejoin: round;
      }

      .cls-4 {
        fill: #006130;
      }
    </style>
  </defs>
  <g id="Ebene_1-2" data-name="Ebene 1">
    <g>
      <circle class="cls-2" cx="24.38" cy="7.97" r="7.47"/>
      <path class="cls-1" d="M22.34,7.58c1.93,0,1.93-3,0-3s-1.93,3,0,3h0Z"/>
      <path class="cls-1" d="M27.16,7.69c1.93,0,1.93-3,0-3s-1.93,3,0,3h0Z"/>
      <path class="cls-3" d="M22.05,10.16c.06,.17,.51,1.33,1.76,1.76,.84,.29,1.56,.07,1.76,0,1.25-.42,1.7-1.59,1.76-1.76"/>
      <circle class="cls-2" cx="22.91" cy="35.8" r="13.41"/>
      <path class="cls-1" d="M19.25,33.91c1.93,0,1.93-3,0-3s-1.93,3,0,3h0Z"/>
      <path class="cls-1" d="M27.91,34.11c1.93,0,1.93-3,0-3s-1.93,3,0,3h0Z"/>
      <path class="cls-3" d="M18.73,39.74c.11,.3,.92,2.4,3.15,3.15,1.51,.51,2.81,.12,3.15,0,2.24-.76,3.05-2.86,3.15-3.15"/>
      <circle class="cls-2" cx="7.97" cy="16.86" r="7.47"/>
      <path class="cls-1" d="M5.93,16.47c1.93,0,1.93-3,0-3s-1.93,3,0,3h0Z"/>
      <path class="cls-1" d="M10.75,16.58c1.93,0,1.93-3,0-3s-1.93,3,0,3h0Z"/>
      <path class="cls-3" d="M5.64,19.05c.06,.17,.51,1.33,1.76,1.76,.84,.29,1.56,.07,1.76,0,1.25-.42,1.7-1.59,1.76-1.76"/>
      <circle class="cls-2" cx="46.97" cy="17.86" r="13.41"/>
      <path class="cls-1" d="M43.31,15.97c1.93,0,1.93-3,0-3s-1.93,3,0,3h0Z"/>
      <path class="cls-1" d="M51.97,16.17c1.93,0,1.93-3,0-3s-1.93,3,0,3h0Z"/>
      <path class="cls-3" d="M42.79,21.8c.11,.3,.92,2.4,3.15,3.15,1.51,.51,2.81,.12,3.15,0,2.24-.76,3.05-2.86,3.15-3.15"/>
      <path class="cls-3" d="M49.47,36.71c-2.52-2.63-6.18-2.74-8-1-1.26,1.21-1.69,3.37-1,5,.68,1.59,2.23,2.19,4,3,2.23,1.02,5.33,2.59,9,5,1.37-3.11,2.84-5.4,4-7,1.16-1.59,2.05-2.54,2-4-.06-1.72-1.41-3.37-3-4-2.29-.9-5.33,.24-7,3Z"/>
      <g>
        <path class="cls-4" d="M55.74,38.15c-.47,.81-.95,1.63-1.42,2.44l-2.13,3.67"/>
        <path class="cls-4" d="M54.45,37.39c-1.19,2.04-2.37,4.07-3.56,6.11-.39,.68-.18,1.67,.54,2.05s1.63,.19,2.05-.54c1.19-2.04,2.37-4.07,3.56-6.11,.39-.68,.18-1.67-.54-2.05s-1.63-.19-2.05,.54h0Z"/>
      </g>
    </g>
  </g>
</svg>