<?xml version="1.0" encoding="UTF-8"?>
<svg id="Ebene_2" data-name="Ebene 2" xmlns="http://www.w3.org/2000/svg" viewBox="0 0 23.85 84.14">
  <defs>
    <style>
      .cls-1 {
        fill: #ba5313;
      }

      .cls-2 {
        fill: none;
        stroke: #171614;
        stroke-miterlimit: 10;
      }

      .cls-3 {
        fill: #006130;
      }
    </style>
  </defs>
  <g id="Ebene_1-2" data-name="Ebene 1">
    <path class="cls-2" d="M6.5,28.68c-4.52,4.26-.2,11.1,1,29,1.04,15.44-1.38,22.33,3,25,3.11,1.9,8.29,.85,11-2,4.23-4.44,0-10.64-1-26-1.06-16.25,2.73-23.55-2-27-3.23-2.36-8.96-1.86-12,1Z"/>
    <path class="cls-2" d="M8.5,.68C4.31,1.5,.47,5.29,.5,9.68c.04,5.57,6.32,10.09,12,9,4.49-.87,8.48-5.22,8-10C19.95,3.19,13.75-.35,8.5,.68Z"/>
    <path class="cls-3" d="M12.54,7.89c.1,.16,.19,.33,.27,.49,.13,.25-.05-.17,0,0,.03,.09,.06,.18,.09,.27,.05,.16,.09,.33,.12,.49,.04,.21,.07,.14,0,0,.03,.07,.02,.2,.02,.28,0,.17,0,.34,0,.51,0,.06,0,.11-.01,.17-.01,.11,0,.08,.02-.12-.03,.02-.03,.19-.04,.22-.04,.18-.09,.37-.14,.55-.01,.04-.13,.35-.04,.14s-.05,.1-.06,.12c-.07,.14-.15,.28-.24,.41-.04,.06-.09,.18-.15,.22,.12-.07,.15-.19,0-.02-.11,.13-.24,.26-.37,.38-.06,.06-.13,.12-.2,.17-.17,.15,0-.05,.05-.04-.07,0-.37,.25-.44,.29-.08,.04-.15,.08-.23,.12-.12,.06-.27,.05,.02,0-.15,.03-.3,.11-.45,.16-.19,.05-.37,.09-.56,.13-.78,.13-1.28,1.13-1.05,1.85,.27,.84,1.01,1.19,1.85,1.05,1.84-.31,3.58-1.61,4.39-3.29,.92-1.92,.85-4.23-.28-6.05-.41-.67-1.36-.99-2.05-.54s-.98,1.34-.54,2.05h0Z"/>
    <path class="cls-1" d="M10.55,69.77c-.92,3.27-.76,6.86,.54,10.01,.3,.72,1.01,1.32,1.85,1.05,.7-.23,1.37-1.07,1.05-1.85-.29-.7-.53-1.42-.7-2.16-.19-.83-.25-1.19-.3-2.01-.04-.76-.03-1.51,.05-2.27,0,0,.06-.48,.03-.24,.03-.21,.07-.43,.11-.64,.07-.37,.17-.74,.27-1.1,.21-.75-.26-1.67-1.05-1.85s-1.62,.24-1.85,1.05h0Z"/>
  </g>
</svg>