<?xml version="1.0" encoding="UTF-8"?>
<svg id="Ebene_2" data-name="Ebene 2" xmlns="http://www.w3.org/2000/svg" viewBox="0 0 31.75 45.13">
  <defs>
    <style>
      .cls-1 {
        fill: none;
        stroke: #171614;
        stroke-linecap: round;
        stroke-linejoin: round;
      }

      .cls-2 {
        fill: #006130;
      }
    </style>
  </defs>
  <g id="Ebene_2-2" data-name="Ebene 2">
    <g id="Ebene_1-2" data-name="Ebene 1-2">
      <path class="cls-1" d="M17.77,44.63c-6.42-5.8-10.41-11.44-12.79-15.35C.8,22.42,.54,19.17,.5,17.77c-.03-1.24-.06-7.84,5.12-12.79C6.71,3.94,10.28,.63,15.85,.5c5.56-.13,9.31,3.01,10.23,3.84,5.65,5.05,5.2,12.59,5.12,14.07-.08,1.42-.41,4.15-5.12,12.79-1.88,3.45-4.6,8.11-8.31,13.43Z"/>
      <path class="cls-2" d="M14.6,6.7c-3.21,.9-5.78,3.41-6.87,6.54-1.54,4.4,.92,9.09,5.15,10.77,3.65,1.45,8.02,.55,10.67-2.4,2.16-2.4,2.91-5.57,2.09-8.7-1.27-4.87-6.35-7.35-11.05-6.22-1.88,.45-1.08,3.35,.8,2.89,2.79-.67,5.92,.45,7.11,3.34,.24,.59,.39,1.25,.43,1.86,.02,.34,.03,.69,.01,1.04,0,.1-.01,.2-.02,.3,0,.07-.09,.66-.02,.25-.04,.25-.08,.49-.15,.73-.16,.58-.26,.78-.6,1.37-1.56,2.64-4.73,3.8-7.68,2.91-1.08-.33-2.21-.93-3.03-1.96-.53-.66-.87-1.45-1.06-2.27-.04-.16-.07-.31-.09-.47,.08,.48-.02-.34-.03-.36-.02-.42,0-.84,.07-1.26,.14-.79,.44-1.52,.85-2.2,.16-.27,.34-.52,.52-.78,.14-.19-.21,.25,0,0,.06-.07,.12-.15,.19-.22,.95-1.11,2.08-1.89,3.51-2.29,1.86-.52,1.07-3.41-.8-2.89v.02Z"/>
    </g>
  </g>
</svg>