<?xml version="1.0" encoding="UTF-8"?>
<svg id="Ebene_2" data-name="Ebene 2" xmlns="http://www.w3.org/2000/svg" viewBox="0 0 258.64 150.36">
  <defs>
    <style>
      .cls-1 {
        fill: #fff;
      }

      .cls-2 {
        fill: none;
        stroke: #fff;
        stroke-linecap: round;
        stroke-linejoin: round;
        stroke-width: 3px;
      }
    </style>
  </defs>
  <g id="Ebene_1-2" data-name="Ebene 1">
    <path class="cls-2" d="M21.41,105.68c.52-3.04,3.59-19.24,17.08-26.33,3.01-1.58,7.6-3.99,12.81-2.85,6,1.32,7.13,6.1,18.5,17.08,5.53,5.34,8.39,7.9,12.81,9.25,1.83,.56,5.77,1.71,10.45,.35,4.32-1.26,6.89-3.97,7.83-4.98,5.36-5.79,5.62-13.6,4.27-18.5-.82-2.96-1.83-3.44-2.14-3.56-2.43-.96-4.43,3.34-9.25,4.27-3.4,.65-8.12-.39-10.45-3.91-2.47-3.73-.86-8.15-.71-8.54,.26-.68,1.39-3.63,4.27-4.98,3.68-1.73,7.73-.28,7.83-.71,.12-.53-6.45-1.04-7.35-3.92-1.14-3.65,6.85-11.08,11.62-9.6,3,.93,4.32,5.28,4.98,4.98,.63-.28-1.5-3.78-.23-6.77,1.25-2.96,5.37-4.37,8.54-4.27,4.35,.13,8.8,3.15,9.48,6.77,.66,3.5-2.32,7.02-2.14,7.12,.2,.1,1.9-4.73,6.18-6.77,.77-.36,2.9-1.38,4.98-.71,4.71,1.52,6.83,11.01,3.56,14.95-2.29,2.76-6.94,2.49-6.89,3.21,.06,.79,6.26-.43,7.83,2.14,1.46,2.38-1.15,7.84-5.21,9.6-3.37,1.46-7.1,.08-9.25-.71-4.53-1.67-5.36-3.73-6.89-3.19-2.94,1.02-3.34,9.95-.94,16.72,.62,1.74,2.24,6.15,6.64,9.62,.3,.23,2.48,2.01,4.98,2.85,10.15,3.4,21.26-6.39,22.06-7.12,9.75-8.82,10.39-21.95,10.68-27.76,1.26-25.92-16.24-44.63-18.5-46.97C116.29-.96,84.7,1.32,78.34,1.77c-17.18,1.24-29.58,7.8-34.87,10.68-7.11,3.86-20.63,11.4-30.6,27.04-.26,.4-.64,1-1.12,1.79C-1.96,63.96,1.96,88.68,2.19,90.03c3.4,19.88,14.94,32.41,18.27,35.93,25.59,27.06,65.4,23.15,76.86,22.06,42.16-3.99,69.12-30.69,77.24-39.42"/>
    <g>
      <path class="cls-1" d="M177.78,19.49c4.11,0,6.04,1.98,6.04,5.18s-2.16,5.33-6.35,5.33h-1.78v6.73h-3.02V19.54c.51,0,3.76-.05,5.1-.05Zm-.13,8.25c2.13,0,2.97-1.27,2.97-2.97,0-1.57-.74-3.12-3.22-3.12-.74,0-1.3,0-1.7,.03v6.07h1.96Z"/>
      <path class="cls-1" d="M197.56,36.03l-2.26,.91s-1.17-1.07-1.29-3.12c-.56,2.03-1.8,3.07-3.96,3.07-3.17,0-4.67-2.49-4.67-6.3s2.46-6.7,6.07-6.7c2.03,0,4.67,.69,4.9,.74v5.99c0,4.01,1.22,5.41,1.22,5.41Zm-4.11-9.83c-.33-.1-1.14-.28-1.68-.28-2.54,0-3.28,1.85-3.28,4.42,0,2.36,.18,4.52,2.03,4.52,1.68,0,2.92-2.51,2.92-5v-3.66Z"/>
      <path class="cls-1" d="M199.98,30.34c0-4.04-1.24-5.41-1.24-5.41l2.29-.91s1.04,1.04,1.27,2.97c.56-2.03,1.78-3.1,3.99-3.1,3.17,0,4.65,2.49,4.65,6.3s-2.44,6.7-6.07,6.7c-.63,0-1.32-.08-1.98-.15v5.1l-2.9,.51v-12.01Zm2.9,4.24c.33,.1,1.14,.28,1.65,.28,2.56,0,3.3-1.85,3.3-4.42,0-2.36-.18-4.52-2.03-4.52-1.68,0-2.92,2.51-2.92,5v3.66Z"/>
      <path class="cls-1" d="M220.32,23.89c2.62,0,3.71,1.68,3.71,4.37v8.48h-2.9v-8.28c0-1.42-.46-2.31-1.68-2.31-1.4,0-3.07,1.57-3.07,3.89v6.7h-2.9V18.83l2.9-.51v7.39c.96-1.3,2.44-1.83,3.94-1.83Z"/>
      <path class="cls-1" d="M232,36.99c-3.89,0-5.56-2.44-5.56-6.45s1.9-6.76,5.79-6.76,5.56,2.44,5.56,6.48c0,3.81-1.9,6.73-5.79,6.73Zm.25-2.13c1.96,0,2.41-1.9,2.41-4.34s-.51-4.6-2.69-4.6c-1.96,0-2.41,1.9-2.41,4.37s.51,4.57,2.69,4.57Z"/>
      <path class="cls-1" d="M248.23,33.21c0,1.9-1.63,3.78-4.42,3.78-2.21,0-4.49-1.22-4.52-1.22l.94-2.13s2.03,1.22,3.33,1.22c1.19,0,1.75-.51,1.75-1.3,0-.89-.63-1.65-1.88-2.11-2.59-.96-3.66-2.13-3.66-4.11s1.83-3.56,4.29-3.56c2.01,0,3.94,.99,3.94,.99l-.86,1.98s-1.68-.84-3-.84c-.76,0-1.42,.38-1.42,1.12,0,.97,.66,1.7,2.11,2.26,2.13,.81,3.4,1.75,3.4,3.91Z"/>
      <path class="cls-1" d="M182.33,65.56v-.36c-.76,1.42-2.34,2.21-4.29,2.21-4.24,0-6.04-3.43-6.04-8.56s2.39-9.07,7.52-9.07c2.26,0,3.81,.89,4.67,1.8l-1.47,1.93c-.86-.86-2.23-1.4-3.55-1.4-2.9,0-3.89,2.9-3.89,6.48,0,3.83,.94,6.45,3.35,6.45,1.57,0,3.4-1.45,3.4-3.86v-2.31h2.97v7.64c0,4.11-2.44,5.31-4.52,6.35l-1.17-2.01c3.05-1.5,3.02-3.66,3.02-5.31Z"/>
      <path class="cls-1" d="M195.63,54.67l-.81,2.82s-.46-.28-1.24-.28c-1.22,0-2.54,1.24-2.54,3.05v6.96h-2.9v-6.4c0-4.04-1.24-5.41-1.24-5.41l2.29-.91s.91,.91,1.22,2.67c.69-1.96,2.03-2.77,3.66-2.77,.79,0,1.6,.28,1.57,.28Z"/>
      <path class="cls-1" d="M206.88,57.87c0,2.44-2.82,4.52-7.29,4.57,.18,1.57,.81,2.87,2.82,2.87,1.47,0,3.61-.89,3.61-.89l.76,1.8s-2.21,1.17-4.77,1.17c-3.91,0-5.48-2.49-5.48-6.2,0-4.52,2.67-6.93,6.12-6.93,3.02,0,4.24,1.57,4.24,3.61Zm-2.9,0c0-.99-.63-1.63-1.57-1.63-2.23,0-2.84,2.28-2.9,4.37,3.22-.13,4.47-1.55,4.47-2.74Z"/>
      <path class="cls-1" d="M218.89,57.87c0,2.44-2.82,4.52-7.29,4.57,.18,1.57,.81,2.87,2.82,2.87,1.47,0,3.61-.89,3.61-.89l.76,1.8s-2.21,1.17-4.77,1.17c-3.91,0-5.48-2.49-5.48-6.2,0-4.52,2.67-6.93,6.12-6.93,3.02,0,4.24,1.57,4.24,3.61Zm-2.9,0c0-.99-.63-1.63-1.57-1.63-2.23,0-2.84,2.28-2.9,4.37,3.22-.13,4.47-1.55,4.47-2.74Z"/>
      <path class="cls-1" d="M229.18,59.01c0-1.42-.46-2.36-1.68-2.36-1.52,0-3.07,1.63-3.07,4.29v6.27h-2.9v-6.4c0-4.04-1.24-5.41-1.24-5.41l2.29-.91s.96,.94,1.24,2.74c.89-2.03,2.69-2.87,4.52-2.87,2.62,0,3.71,1.7,3.71,4.37v8.48h-2.87v-8.2Z"/>
      <path class="cls-1" d="M182.33,96.03v-.36c-.76,1.42-2.34,2.21-4.29,2.21-4.24,0-6.04-3.43-6.04-8.56s2.39-9.07,7.52-9.07c2.26,0,3.81,.89,4.67,1.8l-1.47,1.93c-.86-.86-2.23-1.4-3.55-1.4-2.9,0-3.89,2.9-3.89,6.48,0,3.83,.94,6.45,3.35,6.45,1.57,0,3.4-1.45,3.4-3.86v-2.31h2.97v7.64c0,4.11-2.44,5.31-4.52,6.35l-1.17-2.01c3.05-1.5,3.02-3.66,3.02-5.31Z"/>
      <path class="cls-1" d="M192.71,97.94c-3.89,0-5.56-2.44-5.56-6.45s1.9-6.76,5.79-6.76,5.56,2.44,5.56,6.48c0,3.81-1.9,6.73-5.79,6.73Zm.25-2.13c1.96,0,2.41-1.9,2.41-4.34s-.51-4.6-2.69-4.6c-1.96,0-2.41,1.9-2.41,4.37s.51,4.57,2.69,4.57Z"/>
      <path class="cls-1" d="M208.91,94.76c-.56,2.03-1.8,3.07-3.96,3.07-3.17,0-4.67-2.49-4.67-6.3s2.46-6.7,6.07-6.7c.61,0,1.32,.08,2.01,.18v-5.74l2.9,.51v11.78c0,4.04,1.14,5.23,1.22,5.41l-2.26,.91c-.1-.1-1.14-1.09-1.29-3.12Zm-.56-7.62c-.33-.1-1.14-.28-1.68-.28-2.54,0-3.28,1.85-3.28,4.42,0,2.36,.18,4.49,2.03,4.49,1.68,0,2.92-2.49,2.92-4.98v-3.66Z"/>
      <path class="cls-1" d="M222.53,94.76c-.56,2.03-1.8,3.07-3.96,3.07-3.17,0-4.67-2.49-4.67-6.3s2.46-6.7,6.07-6.7c.61,0,1.32,.08,2.01,.18v-5.74l2.9,.51v11.78c0,4.04,1.14,5.23,1.22,5.41l-2.26,.91c-.1-.1-1.14-1.09-1.29-3.12Zm-.56-7.62c-.33-.1-1.14-.28-1.68-.28-2.54,0-3.28,1.85-3.28,4.42,0,2.36,.18,4.49,2.03,4.49,1.68,0,2.92-2.49,2.92-4.98v-3.66Z"/>
      <path class="cls-1" d="M237.86,88.34c0,2.44-2.82,4.52-7.29,4.57,.18,1.57,.81,2.87,2.82,2.87,1.47,0,3.61-.89,3.61-.89l.76,1.8s-2.21,1.17-4.77,1.17c-3.91,0-5.48-2.49-5.48-6.2,0-4.52,2.67-6.93,6.12-6.93,3.02,0,4.24,1.57,4.24,3.61Zm-2.9,0c0-.99-.63-1.63-1.57-1.63-2.23,0-2.84,2.28-2.9,4.37,3.22-.13,4.47-1.55,4.47-2.74Z"/>
      <path class="cls-1" d="M248.17,94.16c0,1.9-1.63,3.78-4.42,3.78-2.21,0-4.49-1.22-4.52-1.22l.94-2.13s2.03,1.22,3.33,1.22c1.19,0,1.75-.51,1.75-1.3,0-.89-.63-1.65-1.88-2.11-2.59-.96-3.66-2.13-3.66-4.11s1.83-3.56,4.29-3.56c2.01,0,3.94,.99,3.94,.99l-.86,1.98s-1.68-.84-3-.84c-.76,0-1.42,.38-1.42,1.12,0,.97,.66,1.7,2.11,2.26,2.13,.81,3.4,1.75,3.4,3.91Z"/>
      <path class="cls-1" d="M258.64,94.16c0,1.9-1.63,3.78-4.42,3.78-2.21,0-4.49-1.22-4.52-1.22l.94-2.13s2.03,1.22,3.33,1.22c1.19,0,1.75-.51,1.75-1.3,0-.89-.63-1.65-1.88-2.11-2.59-.96-3.66-2.13-3.66-4.11s1.83-3.56,4.29-3.56c2.01,0,3.94,.99,3.94,.99l-.86,1.98s-1.68-.84-3-.84c-.76,0-1.42,.38-1.42,1.12,0,.97,.66,1.7,2.11,2.26,2.13,.81,3.4,1.75,3.4,3.91Z"/>
    </g>
  </g>
</svg>