<?xml version="1.0" encoding="UTF-8"?>
<svg id="Ebene_2" data-name="Ebene 2" xmlns="http://www.w3.org/2000/svg" viewBox="0 0 292.35 150.81">
  <defs>
    <style>
      .cls-1 {
        fill: #fff;
      }

      .cls-2 {
        fill: none;
        stroke: #fff;
        stroke-linecap: round;
        stroke-linejoin: round;
        stroke-width: 3px;
      }
    </style>
  </defs>
  <g id="Ebene_1-2" data-name="Ebene 1">
    <g>
      <path class="cls-2" d="M21.41,105.68c.52-3.04,3.59-19.24,17.08-26.33,3.01-1.58,7.6-3.99,12.81-2.85,6,1.32,7.13,6.1,18.5,17.08,5.53,5.34,8.39,7.9,12.81,9.25,1.83,.56,5.77,1.71,10.45,.35,4.32-1.26,6.89-3.97,7.83-4.98,5.36-5.79,5.62-13.6,4.27-18.5-.82-2.96-1.83-3.44-2.14-3.56-2.43-.96-4.43,3.34-9.25,4.27-3.4,.65-8.12-.39-10.45-3.91-2.47-3.73-.86-8.15-.71-8.54,.26-.68,1.39-3.63,4.27-4.98,3.68-1.73,7.73-.28,7.83-.71,.12-.53-6.45-1.04-7.35-3.92-1.14-3.65,6.85-11.08,11.62-9.6,3,.93,4.32,5.28,4.98,4.98,.63-.28-1.5-3.78-.23-6.77,1.25-2.96,5.37-4.37,8.54-4.27,4.35,.13,8.8,3.15,9.48,6.77,.66,3.5-2.32,7.02-2.14,7.12,.2,.1,1.9-4.73,6.18-6.77,.77-.36,2.9-1.38,4.98-.71,4.71,1.52,6.83,11.01,3.56,14.95-2.29,2.76-6.94,2.49-6.89,3.21,.06,.79,6.26-.43,7.83,2.14,1.46,2.38-1.15,7.84-5.21,9.6-3.37,1.46-7.1,.08-9.25-.71-4.53-1.67-5.36-3.73-6.89-3.19-2.94,1.02-3.34,9.95-.94,16.72,.62,1.74,2.24,6.15,6.64,9.62,.3,.23,2.48,2.01,4.98,2.85,10.15,3.4,21.26-6.39,22.06-7.12,9.75-8.82,10.39-21.95,10.68-27.76,1.26-25.92-16.24-44.63-18.5-46.97C116.29-.96,84.7,1.32,78.34,1.77c-17.18,1.24-29.58,7.8-34.87,10.68-7.11,3.86-20.63,11.4-30.6,27.04-.26,.4-.64,1-1.12,1.79C-1.96,63.96,1.96,88.68,2.19,90.03c3.4,19.88,14.94,32.41,18.27,35.93,28.31,29.93,72.32,22.87,76.86,22.06,32.47-5.74,51.6-27.62,57.17-34.51"/>
      <g>
        <path class="cls-1" d="M196.83,26.29c4.86,0,7.14,2.34,7.14,6.12s-2.55,6.3-7.5,6.3h-2.1v7.95h-3.57V26.35c.6,0,4.44-.06,6.03-.06Zm-.15,9.75c2.52,0,3.51-1.5,3.51-3.51,0-1.86-.87-3.69-3.81-3.69-.87,0-1.53,0-2.01,.03v7.17h2.31Z"/>
        <path class="cls-1" d="M220.2,45.82l-2.67,1.08s-1.38-1.26-1.53-3.69c-.66,2.4-2.13,3.63-4.68,3.63-3.75,0-5.52-2.94-5.52-7.44s2.91-7.92,7.17-7.92c2.4,0,5.52,.81,5.79,.87v7.08c0,4.74,1.44,6.39,1.44,6.39Zm-4.86-11.61c-.39-.12-1.35-.33-1.98-.33-3,0-3.87,2.19-3.87,5.22,0,2.79,.21,5.34,2.4,5.34,1.98,0,3.45-2.97,3.45-5.91v-4.32Z"/>
        <path class="cls-1" d="M223.05,39.1c0-4.77-1.47-6.39-1.47-6.39l2.7-1.08s1.23,1.23,1.5,3.51c.66-2.4,2.1-3.66,4.71-3.66,3.75,0,5.49,2.94,5.49,7.44s-2.88,7.92-7.17,7.92c-.75,0-1.56-.09-2.34-.18v6.03l-3.42,.6v-14.19Zm3.42,5.01c.39,.12,1.35,.33,1.95,.33,3.03,0,3.9-2.19,3.9-5.22,0-2.79-.21-5.34-2.4-5.34-1.98,0-3.45,2.97-3.45,5.91v4.32Z"/>
        <path class="cls-1" d="M247.08,31.48c3.09,0,4.38,1.98,4.38,5.16v10.02h-3.42v-9.78c0-1.68-.54-2.73-1.98-2.73-1.65,0-3.63,1.86-3.63,4.59v7.92h-3.42V25.51l3.42-.6v8.73c1.14-1.53,2.88-2.16,4.65-2.16Z"/>
        <path class="cls-1" d="M260.88,46.96c-4.59,0-6.57-2.88-6.57-7.62s2.25-7.98,6.84-7.98,6.57,2.88,6.57,7.65c0,4.5-2.25,7.95-6.84,7.95Zm.3-2.52c2.31,0,2.85-2.25,2.85-5.13s-.6-5.43-3.18-5.43c-2.31,0-2.85,2.25-2.85,5.16s.6,5.4,3.18,5.4Z"/>
        <path class="cls-1" d="M280.05,42.49c0,2.25-1.92,4.47-5.22,4.47-2.61,0-5.31-1.44-5.34-1.44l1.11-2.52s2.4,1.44,3.93,1.44c1.41,0,2.07-.6,2.07-1.53,0-1.05-.75-1.95-2.22-2.49-3.06-1.14-4.32-2.52-4.32-4.86s2.16-4.2,5.07-4.2c2.37,0,4.65,1.17,4.65,1.17l-1.02,2.34s-1.98-.99-3.54-.99c-.9,0-1.68,.45-1.68,1.32,0,1.14,.78,2.01,2.49,2.67,2.52,.96,4.02,2.07,4.02,4.62Z"/>
        <path class="cls-1" d="M202.2,80.71v-.42c-.9,1.68-2.76,2.61-5.07,2.61-5.01,0-7.14-4.05-7.14-10.11s2.82-10.71,8.88-10.71c2.67,0,4.5,1.05,5.52,2.13l-1.74,2.28c-1.02-1.02-2.64-1.65-4.2-1.65-3.42,0-4.59,3.42-4.59,7.65,0,4.53,1.11,7.62,3.96,7.62,1.86,0,4.02-1.71,4.02-4.56v-2.73h3.51v9.03c0,4.86-2.88,6.27-5.34,7.5l-1.38-2.37c3.6-1.77,3.57-4.32,3.57-6.27Z"/>
        <path class="cls-1" d="M217.92,67.84l-.96,3.33s-.54-.33-1.47-.33c-1.44,0-3,1.47-3,3.6v8.22h-3.42v-7.56c0-4.77-1.47-6.39-1.47-6.39l2.7-1.08s1.08,1.08,1.44,3.15c.81-2.31,2.4-3.27,4.32-3.27,.93,0,1.89,.33,1.86,.33Z"/>
        <path class="cls-1" d="M231.21,71.62c0,2.88-3.33,5.34-8.61,5.4,.21,1.86,.96,3.39,3.33,3.39,1.74,0,4.26-1.05,4.26-1.05l.9,2.13s-2.61,1.38-5.64,1.38c-4.62,0-6.48-2.94-6.48-7.32,0-5.34,3.15-8.19,7.23-8.19,3.57,0,5.01,1.86,5.01,4.26Zm-3.42,0c0-1.17-.75-1.92-1.86-1.92-2.64,0-3.36,2.7-3.42,5.16,3.81-.15,5.28-1.83,5.28-3.24Z"/>
        <path class="cls-1" d="M245.4,71.62c0,2.88-3.33,5.34-8.61,5.4,.21,1.86,.96,3.39,3.33,3.39,1.74,0,4.26-1.05,4.26-1.05l.9,2.13s-2.61,1.38-5.64,1.38c-4.62,0-6.48-2.94-6.48-7.32,0-5.34,3.15-8.19,7.23-8.19,3.57,0,5.01,1.86,5.01,4.26Zm-3.42,0c0-1.17-.75-1.92-1.86-1.92-2.64,0-3.36,2.7-3.42,5.16,3.81-.15,5.28-1.83,5.28-3.24Z"/>
        <path class="cls-1" d="M257.55,72.97c0-1.68-.54-2.79-1.98-2.79-1.8,0-3.63,1.92-3.63,5.07v7.41h-3.42v-7.56c0-4.77-1.47-6.39-1.47-6.39l2.7-1.08s1.14,1.11,1.47,3.24c1.05-2.4,3.18-3.39,5.34-3.39,3.09,0,4.38,2.01,4.38,5.16v10.02h-3.39v-9.69Z"/>
        <path class="cls-1" d="M202.2,116.71v-.42c-.9,1.68-2.76,2.61-5.07,2.61-5.01,0-7.14-4.05-7.14-10.11s2.82-10.71,8.88-10.71c2.67,0,4.5,1.05,5.52,2.13l-1.74,2.28c-1.02-1.02-2.64-1.65-4.2-1.65-3.42,0-4.59,3.42-4.59,7.65,0,4.53,1.11,7.62,3.96,7.62,1.86,0,4.02-1.71,4.02-4.56v-2.73h3.51v9.03c0,4.86-2.88,6.27-5.34,7.5l-1.38-2.37c3.6-1.77,3.57-4.32,3.57-6.27Z"/>
        <path class="cls-1" d="M214.47,118.96c-4.59,0-6.57-2.88-6.57-7.62s2.25-7.98,6.84-7.98,6.57,2.88,6.57,7.65c0,4.5-2.25,7.95-6.84,7.95Zm.3-2.52c2.31,0,2.85-2.25,2.85-5.13s-.6-5.43-3.18-5.43c-2.31,0-2.85,2.25-2.85,5.16s.6,5.4,3.18,5.4Z"/>
        <path class="cls-1" d="M233.61,115.21c-.66,2.4-2.13,3.63-4.68,3.63-3.75,0-5.52-2.94-5.52-7.44s2.91-7.92,7.17-7.92c.72,0,1.56,.09,2.37,.21v-6.78l3.42,.6v13.92c0,4.77,1.35,6.18,1.44,6.39l-2.67,1.08c-.12-.12-1.35-1.29-1.53-3.69Zm-.66-9c-.39-.12-1.35-.33-1.98-.33-3,0-3.87,2.19-3.87,5.22,0,2.79,.21,5.31,2.4,5.31,1.98,0,3.45-2.94,3.45-5.88v-4.32Z"/>
        <path class="cls-1" d="M249.69,115.21c-.66,2.4-2.13,3.63-4.68,3.63-3.75,0-5.52-2.94-5.52-7.44s2.91-7.92,7.17-7.92c.72,0,1.56,.09,2.37,.21v-6.78l3.42,.6v13.92c0,4.77,1.35,6.18,1.44,6.39l-2.67,1.08c-.12-.12-1.35-1.29-1.53-3.69Zm-.66-9c-.39-.12-1.35-.33-1.98-.33-3,0-3.87,2.19-3.87,5.22,0,2.79,.21,5.31,2.4,5.31,1.98,0,3.45-2.94,3.45-5.88v-4.32Z"/>
        <path class="cls-1" d="M267.81,107.62c0,2.88-3.33,5.34-8.61,5.4,.21,1.86,.96,3.39,3.33,3.39,1.74,0,4.26-1.05,4.26-1.05l.9,2.13s-2.61,1.38-5.64,1.38c-4.62,0-6.48-2.94-6.48-7.32,0-5.34,3.15-8.19,7.23-8.19,3.57,0,5.01,1.86,5.01,4.26Zm-3.42,0c0-1.17-.75-1.92-1.86-1.92-2.64,0-3.36,2.7-3.42,5.16,3.81-.15,5.28-1.83,5.28-3.24Z"/>
        <path class="cls-1" d="M279.99,114.49c0,2.25-1.92,4.47-5.22,4.47-2.61,0-5.31-1.44-5.34-1.44l1.11-2.52s2.4,1.44,3.93,1.44c1.41,0,2.07-.6,2.07-1.53,0-1.05-.75-1.95-2.22-2.49-3.06-1.14-4.32-2.52-4.32-4.86s2.16-4.2,5.07-4.2c2.37,0,4.65,1.17,4.65,1.17l-1.02,2.34s-1.98-.99-3.54-.99c-.9,0-1.68,.45-1.68,1.32,0,1.14,.78,2.01,2.49,2.67,2.52,.96,4.02,2.07,4.02,4.62Z"/>
        <path class="cls-1" d="M292.35,114.49c0,2.25-1.92,4.47-5.22,4.47-2.61,0-5.31-1.44-5.34-1.44l1.11-2.52s2.4,1.44,3.93,1.44c1.41,0,2.07-.6,2.07-1.53,0-1.05-.75-1.95-2.22-2.49-3.06-1.14-4.32-2.52-4.32-4.86s2.16-4.2,5.07-4.2c2.37,0,4.65,1.17,4.65,1.17l-1.02,2.34s-1.98-.99-3.54-.99c-.9,0-1.68,.45-1.68,1.32,0,1.14,.78,2.01,2.49,2.67,2.52,.96,4.02,2.07,4.02,4.62Z"/>
      </g>
    </g>
  </g>
</svg>