<?xml version="1.0" encoding="UTF-8"?>
<svg id="Ebene_2" data-name="Ebene 2" xmlns="http://www.w3.org/2000/svg" viewBox="0 0 251.73 150.36">
  <defs>
    <style>
      .cls-1 {
        fill: none;
        stroke: #000;
        stroke-linecap: round;
        stroke-linejoin: round;
        stroke-width: 3px;
      }
    </style>
  </defs>
  <g id="Ebene_1-2" data-name="Ebene 1">
    <path class="cls-1" d="M21.41,105.68c.52-3.04,3.59-19.24,17.08-26.33,3.01-1.58,7.6-3.99,12.81-2.85,6,1.32,7.13,6.1,18.5,17.08,5.53,5.34,8.39,7.9,12.81,9.25,1.83,.56,5.77,1.71,10.45,.35,4.32-1.26,6.89-3.97,7.83-4.98,5.36-5.79,5.62-13.6,4.27-18.5-.82-2.96-1.83-3.44-2.14-3.56-2.43-.96-4.43,3.34-9.25,4.27-3.4,.65-8.12-.39-10.45-3.91-2.47-3.73-.86-8.15-.71-8.54,.26-.68,1.39-3.63,4.27-4.98,3.68-1.73,7.73-.28,7.83-.71,.12-.53-6.45-1.04-7.35-3.92-1.14-3.65,6.85-11.08,11.62-9.6,3,.93,4.32,5.28,4.98,4.98,.63-.28-1.5-3.78-.23-6.77,1.25-2.96,5.37-4.37,8.54-4.27,4.35,.13,8.8,3.15,9.48,6.77,.66,3.5-2.32,7.02-2.14,7.12,.2,.1,1.9-4.73,6.18-6.77,.77-.36,2.9-1.38,4.98-.71,4.71,1.52,6.83,11.01,3.56,14.95-2.29,2.76-6.94,2.49-6.89,3.21,.06,.79,6.26-.43,7.83,2.14,1.46,2.38-1.15,7.84-5.21,9.6-3.37,1.46-7.1,.08-9.25-.71-4.53-1.67-5.36-3.73-6.89-3.19-2.94,1.02-3.34,9.95-.94,16.72,.62,1.74,2.24,6.15,6.64,9.62,.3,.23,2.48,2.01,4.98,2.85,10.15,3.4,21.26-6.39,22.06-7.12,9.75-8.82,10.39-21.95,10.68-27.76,1.26-25.92-16.24-44.63-18.5-46.97C116.29-.96,84.7,1.32,78.34,1.77c-17.18,1.24-29.58,7.8-34.87,10.68-7.11,3.86-20.63,11.4-30.6,27.04-.26,.4-.64,1-1.12,1.79C-1.96,63.96,1.96,88.68,2.19,90.03c3.4,19.88,14.94,32.41,18.27,35.93,25.59,27.06,65.4,23.15,76.86,22.06,42.16-3.99,69.12-30.69,77.24-39.42"/>
    <g>
      <path d="M177.32,26.18c3.79,0,5.56,1.82,5.56,4.77s-1.99,4.91-5.84,4.91h-1.64v6.19h-2.78v-15.82c.47,0,3.46-.05,4.7-.05Zm-.12,7.6c1.96,0,2.73-1.17,2.73-2.74,0-1.45-.68-2.87-2.97-2.87-.68,0-1.19,0-1.57,.02v5.59h1.8Z"/>
      <path d="M195.52,41.39l-2.08,.84s-1.07-.98-1.19-2.88c-.51,1.87-1.66,2.83-3.65,2.83-2.92,0-4.3-2.29-4.3-5.8s2.27-6.17,5.59-6.17c1.87,0,4.3,.63,4.51,.68v5.52c0,3.69,1.12,4.98,1.12,4.98Zm-3.79-9.04c-.3-.09-1.05-.26-1.54-.26-2.34,0-3.01,1.71-3.01,4.07,0,2.17,.16,4.16,1.87,4.16,1.54,0,2.69-2.31,2.69-4.6v-3.36Z"/>
      <path d="M197.75,36.16c0-3.72-1.14-4.98-1.14-4.98l2.1-.84s.96,.96,1.17,2.73c.51-1.87,1.64-2.85,3.67-2.85,2.92,0,4.28,2.29,4.28,5.8s-2.24,6.17-5.59,6.17c-.58,0-1.21-.07-1.82-.14v4.7l-2.66,.47v-11.05Zm2.66,3.9c.3,.09,1.05,.26,1.52,.26,2.36,0,3.04-1.71,3.04-4.07,0-2.17-.16-4.16-1.87-4.16-1.54,0-2.69,2.31-2.69,4.6v3.37Z"/>
      <path d="M216.47,30.22c2.41,0,3.41,1.54,3.41,4.02v7.81h-2.66v-7.62c0-1.31-.42-2.13-1.54-2.13-1.29,0-2.83,1.45-2.83,3.58v6.17h-2.66V25.57l2.66-.47v6.8c.89-1.19,2.24-1.68,3.62-1.68Z"/>
      <path d="M227.22,42.28c-3.58,0-5.12-2.24-5.12-5.94s1.75-6.22,5.33-6.22,5.12,2.24,5.12,5.96c0,3.51-1.75,6.19-5.33,6.19Zm.23-1.96c1.8,0,2.22-1.75,2.22-4s-.47-4.23-2.48-4.23c-1.8,0-2.22,1.75-2.22,4.02s.47,4.21,2.48,4.21Z"/>
      <path d="M242.15,38.8c0,1.75-1.5,3.48-4.07,3.48-2.03,0-4.14-1.12-4.16-1.12l.87-1.96s1.87,1.12,3.06,1.12c1.1,0,1.61-.47,1.61-1.19,0-.82-.58-1.52-1.73-1.94-2.38-.89-3.36-1.96-3.36-3.79s1.68-3.27,3.95-3.27c1.85,0,3.62,.91,3.62,.91l-.8,1.82s-1.54-.77-2.76-.77c-.7,0-1.31,.35-1.31,1.03,0,.89,.61,1.57,1.94,2.08,1.96,.75,3.13,1.61,3.13,3.6Z"/>
      <path d="M181.5,68.57v-.33c-.7,1.31-2.15,2.03-3.95,2.03-3.9,0-5.56-3.15-5.56-7.88s2.2-8.34,6.92-8.34c2.08,0,3.5,.82,4.3,1.66l-1.36,1.78c-.79-.8-2.06-1.29-3.27-1.29-2.66,0-3.58,2.66-3.58,5.96,0,3.53,.86,5.94,3.09,5.94,1.45,0,3.13-1.33,3.13-3.55v-2.13h2.73v7.04c0,3.79-2.24,4.88-4.16,5.84l-1.07-1.85c2.8-1.38,2.78-3.37,2.78-4.89Z"/>
      <path d="M193.75,58.55l-.75,2.59s-.42-.26-1.14-.26c-1.12,0-2.34,1.14-2.34,2.8v6.4h-2.66v-5.89c0-3.72-1.14-4.98-1.14-4.98l2.1-.84s.84,.84,1.12,2.45c.63-1.8,1.87-2.55,3.37-2.55,.72,0,1.47,.26,1.45,.26Z"/>
      <path d="M204.1,61.49c0,2.24-2.59,4.16-6.71,4.21,.16,1.45,.75,2.64,2.59,2.64,1.36,0,3.32-.82,3.32-.82l.7,1.66s-2.03,1.07-4.39,1.07c-3.6,0-5.05-2.29-5.05-5.7,0-4.16,2.45-6.38,5.63-6.38,2.78,0,3.9,1.45,3.9,3.32Zm-2.66,0c0-.91-.58-1.5-1.45-1.5-2.06,0-2.62,2.1-2.66,4.02,2.97-.12,4.11-1.43,4.11-2.52Z"/>
      <path d="M215.16,61.49c0,2.24-2.59,4.16-6.71,4.21,.16,1.45,.75,2.64,2.59,2.64,1.36,0,3.32-.82,3.32-.82l.7,1.66s-2.03,1.07-4.39,1.07c-3.6,0-5.05-2.29-5.05-5.7,0-4.16,2.45-6.38,5.63-6.38,2.78,0,3.9,1.45,3.9,3.32Zm-2.66,0c0-.91-.58-1.5-1.45-1.5-2.06,0-2.62,2.1-2.66,4.02,2.97-.12,4.11-1.43,4.11-2.52Z"/>
      <path d="M224.62,62.54c0-1.31-.42-2.17-1.54-2.17-1.4,0-2.83,1.5-2.83,3.95v5.77h-2.66v-5.89c0-3.72-1.14-4.98-1.14-4.98l2.1-.84s.89,.86,1.14,2.52c.82-1.87,2.48-2.64,4.16-2.64,2.41,0,3.41,1.57,3.41,4.02v7.81h-2.64v-7.55Z"/>
      <path d="M181.5,96.62v-.33c-.7,1.31-2.15,2.03-3.95,2.03-3.9,0-5.56-3.15-5.56-7.88s2.2-8.34,6.92-8.34c2.08,0,3.5,.82,4.3,1.66l-1.36,1.78c-.79-.8-2.06-1.29-3.27-1.29-2.66,0-3.58,2.66-3.58,5.96,0,3.53,.86,5.94,3.09,5.94,1.45,0,3.13-1.33,3.13-3.55v-2.13h2.73v7.04c0,3.79-2.24,4.88-4.16,5.84l-1.07-1.85c2.8-1.38,2.78-3.37,2.78-4.89Z"/>
      <path d="M191.06,98.37c-3.58,0-5.12-2.24-5.12-5.94s1.75-6.22,5.33-6.22,5.12,2.24,5.12,5.96c0,3.51-1.75,6.19-5.33,6.19Zm.23-1.96c1.8,0,2.22-1.75,2.22-4s-.47-4.23-2.48-4.23c-1.8,0-2.22,1.75-2.22,4.02s.47,4.21,2.48,4.21Z"/>
      <path d="M205.97,95.45c-.51,1.87-1.66,2.83-3.65,2.83-2.92,0-4.3-2.29-4.3-5.8s2.27-6.17,5.59-6.17c.56,0,1.21,.07,1.85,.16v-5.28l2.66,.47v10.84c0,3.72,1.05,4.81,1.12,4.98l-2.08,.84c-.09-.09-1.05-1.01-1.19-2.88Zm-.51-7.01c-.3-.09-1.05-.26-1.54-.26-2.34,0-3.01,1.71-3.01,4.07,0,2.17,.16,4.14,1.87,4.14,1.54,0,2.69-2.29,2.69-4.58v-3.36Z"/>
      <path d="M218.5,95.45c-.51,1.87-1.66,2.83-3.65,2.83-2.92,0-4.3-2.29-4.3-5.8s2.27-6.17,5.59-6.17c.56,0,1.21,.07,1.85,.16v-5.28l2.66,.47v10.84c0,3.72,1.05,4.81,1.12,4.98l-2.08,.84c-.09-.09-1.05-1.01-1.19-2.88Zm-.51-7.01c-.3-.09-1.05-.26-1.54-.26-2.34,0-3.01,1.71-3.01,4.07,0,2.17,.16,4.14,1.87,4.14,1.54,0,2.69-2.29,2.69-4.58v-3.36Z"/>
      <path d="M232.61,89.54c0,2.24-2.59,4.16-6.71,4.21,.16,1.45,.75,2.64,2.59,2.64,1.36,0,3.32-.82,3.32-.82l.7,1.66s-2.03,1.07-4.39,1.07c-3.6,0-5.05-2.29-5.05-5.7,0-4.16,2.45-6.38,5.63-6.38,2.78,0,3.9,1.45,3.9,3.32Zm-2.66,0c0-.91-.58-1.5-1.45-1.5-2.06,0-2.62,2.1-2.66,4.02,2.97-.12,4.11-1.43,4.11-2.52Z"/>
      <path d="M242.1,94.89c0,1.75-1.5,3.48-4.07,3.48-2.03,0-4.14-1.12-4.16-1.12l.87-1.96s1.87,1.12,3.06,1.12c1.1,0,1.61-.47,1.61-1.19,0-.82-.58-1.52-1.73-1.94-2.38-.89-3.36-1.96-3.36-3.79s1.68-3.27,3.95-3.27c1.85,0,3.62,.91,3.62,.91l-.8,1.82s-1.54-.77-2.76-.77c-.7,0-1.31,.35-1.31,1.03,0,.89,.61,1.57,1.94,2.08,1.96,.75,3.13,1.61,3.13,3.6Z"/>
      <path d="M251.73,94.89c0,1.75-1.5,3.48-4.07,3.48-2.03,0-4.14-1.12-4.16-1.12l.87-1.96s1.87,1.12,3.06,1.12c1.1,0,1.61-.47,1.61-1.19,0-.82-.58-1.52-1.73-1.94-2.38-.89-3.36-1.96-3.36-3.79s1.68-3.27,3.95-3.27c1.85,0,3.62,.91,3.62,.91l-.8,1.82s-1.54-.77-2.76-.77c-.7,0-1.31,.35-1.31,1.03,0,.89,.61,1.57,1.94,2.08,1.96,.75,3.13,1.61,3.13,3.6Z"/>
    </g>
  </g>
</svg>