<?xml version="1.0" encoding="UTF-8"?>
<svg id="Ebene_2" data-name="Ebene 2" xmlns="http://www.w3.org/2000/svg" viewBox="0 0 28.24 49.21">
  <defs>
    <style>
      .cls-1 {
        fill: #ba5313;
      }

      .cls-2 {
        stroke-miterlimit: 10;
      }

      .cls-2, .cls-3 {
        fill: none;
        stroke: #171614;
      }

      .cls-3 {
        stroke-linecap: round;
        stroke-linejoin: round;
      }

      .cls-4 {
        fill: #006130;
      }
    </style>
  </defs>
  <g id="Ebene_1-2" data-name="Ebene 1">
    <path class="cls-3" d="M10.16,15.43C6.94,24.22,3.72,33,.5,41.78H27.74c-3.81-8.78-7.62-17.57-11.43-26.35"/>
    <circle class="cls-2" cx="13.24" cy="7.97" r="7.47"/>
    <path class="cls-3" d="M10.16,42.42v6.15h-3.51"/>
    <path class="cls-1" d="M11.2,7.58c1.93,0,1.93-3,0-3s-1.93,3,0,3h0Z"/>
    <path class="cls-1" d="M16.02,7.69c1.93,0,1.93-3,0-3s-1.93,3,0,3h0Z"/>
    <path class="cls-3" d="M10.91,10.16c.06,.17,.51,1.33,1.76,1.76,.84,.29,1.56,.07,1.76,0,1.25-.42,1.7-1.59,1.76-1.76"/>
    <path class="cls-3" d="M7.53,20.7c-2.45,.51-4.19,1.91-4.39,3.51-.17,1.38,.86,2.52,1.76,3.51,1.94,2.15,4.39,3.09,6.15,3.51"/>
    <path class="cls-3" d="M19.29,20.53c2.45,.51,4.19,1.91,4.39,3.51,.17,1.38-.86,2.52-1.76,3.51-1.94,2.15-4.39,3.09-6.15,3.51"/>
    <g>
      <path class="cls-4" d="M22.63,38.33c-2.04-.43-4.14-.6-6.22-.53"/>
      <path class="cls-4" d="M23.03,36.89c-2.17-.45-4.4-.66-6.62-.58-.78,.03-1.54,.67-1.5,1.5s.66,1.53,1.5,1.5c1.02-.03,2.05-.01,3.07,.07,.26,.02,.52,.05,.78,.08,.12,.01,.24,.02,.36,.04l-.16-.02c.08,.01,.16,.02,.24,.03,.52,.08,1.03,.17,1.54,.27,.77,.16,1.66-.22,1.85-1.05,.17-.75-.23-1.68-1.05-1.85h0Z"/>
    </g>
    <path class="cls-3" d="M17.37,42.56v6.15h3.51"/>
  </g>
</svg>