<?xml version="1.0" encoding="UTF-8"?>
<svg id="Ebene_2" data-name="Ebene 2" xmlns="http://www.w3.org/2000/svg" viewBox="0 0 1800 1200">
  <defs>
    <style>
      .cls-1 {
        fill: #fff;
        opacity: .8;
      }
    </style>
  </defs>
  <g id="Ebene_1-2" data-name="Ebene 1">
    <path class="cls-1" d="M57.02,1198.89c57.53-5.72,76.87-30.22,155.65-61.44,57.31-22.71,101-31.12,110.96-32.97,37.3-6.93,66.05-8.12,107.88-8.99,86.34-1.81,152.45-.69,198.8,0,150.08,2.23,34.7-.94,203.42,0,42.88,.24,87.98,.65,144.86-14.99,23.49-6.46,46.73-12.85,72.43-28.47,25.89-15.74,51.11-38.93,95.55-115.39,32.54-55.98,57.68-110.07,80.14-166.35,27.66-69.3,22.93-70.98,52.4-143.87,18.61-46.04,33.47-77.15,63.18-139.37,43.83-91.78,56.85-110.52,70.89-127.38,16.21-19.46,40.11-47.64,80.14-70.43,16.62-9.47,46.53-24,130.99-35.97,43.9-6.22,103.68-11.91,175.68-10.49V0H816.77c-11.48,5.15-28.18,13.64-46.22,26.98-19.31,14.27-28.8,25.69-50.86,47.96,0,0-25.96,26.22-55.48,52.45-24.61,21.87-49.79,44.26-83.22,64.44-68.53,41.38-133.95,50.7-149.1,52.63-29.95,3.82-54.57,3.02-103.8,1.42-54.43-1.77-61.06-5.87-92.27-4.15-50.66,2.78-88.55,16.63-111,25.03-55.73,20.86-97.12,49.91-124.83,73.43v857.21c12.23,1.84,32.49,3.93,57.02,1.49Z"/>
  </g>
</svg>