<?xml version="1.0" encoding="UTF-8"?>
<svg id="Ebene_2" data-name="Ebene 2" xmlns="http://www.w3.org/2000/svg" xmlns:xlink="http://www.w3.org/1999/xlink" viewBox="0 0 1957.91 1306.27">
  <defs>
    <style>
      .cls-1 {
        fill: #fff;
        opacity: .8;
      }

      .cls-2 {
        clip-path: url(#clippath);
      }

      .cls-3 {
        fill: none;
      }
    </style>
    <clipPath id="clippath">
      <rect class="cls-3" width="1957.91" height="1306.27"/>
    </clipPath>
  </defs>
  <g id="Ebene_1-2" data-name="Ebene 1">
    <g class="cls-2">
      <path class="cls-1" d="M58.29,1330.07c216.67,5.34,433.46,5.75,650.37,1.24,118.33-69.52,212.18-137.06,280.36-190.12,106.11-82.58,188.37-147.31,274.9-256.87,40.11-50.79,84.85-107.44,125.66-193.02,51.12-107.2,68.83-155.51,68.83-155.51,14.43-35.5,36.29-81.71,69.16-131.71,45.13-68.65,89.71-112.04,121.33-142.46,49.4-47.51,107.26-102.25,197.88-144.32,45.84-21.29,86.09-32.84,113.48-39.31-1.08-28.55-2.16-57.1-3.24-85.66H885.92c-12.51,5.75-30.7,15.22-50.35,30.1-21.03,15.92-31.37,28.66-55.4,53.51,0,0-28.28,29.25-60.44,58.53-5.67,5.16-12.55,11.59-21.94,19.68,0,0-33.64,29.02-68.71,52.23-67.21,44.47-172.41,71.61-172.41,71.61-154.03,39.74-202.57,15.43-345.99,54.51-51.17,13.94-91.19,29.63-114.5,39.42v956.5c20.71,.6,41.41,1.16,62.12,1.67Z"/>
    </g>
  </g>
</svg>