<?xml version="1.0" encoding="UTF-8"?>
<svg id="Ebene_2" data-name="Ebene 2" xmlns="http://www.w3.org/2000/svg" viewBox="0 0 61.87 59">
  <defs>
    <style>
      .cls-1 {
        fill: #ba5313;
      }

      .cls-2 {
        fill: none;
      }

      .cls-2, .cls-3 {
        stroke: #000;
      }

      .cls-2, .cls-3, .cls-4 {
        stroke-miterlimit: 10;
      }

      .cls-3 {
        fill: #fff;
      }

      .cls-4 {
        fill: #006130;
        stroke: #006130;
      }
    </style>
  </defs>
  <g id="Ebene_1-2" data-name="Ebene 1">
    <g>
      <path class="cls-2" d="M2.21,8.88c6.17,3.49,12.35,6.97,18.52,10.46,.78-.85,1.98-2.05,3.59-3.29,2.14-1.65,5.8-4.47,11.05-5.08,1.63-.19,4.52-.29,8.07,.9,.2-.88,.55-2.03,1.2-3.29,.68-1.32,1.46-2.31,2.09-2.99-.03-.3-.15-2.1,1.2-3.59,.21-.23,1.27-1.35,2.99-1.49,1.84-.16,3.58,.88,4.48,2.39,.92,1.55,.92,3.5,0,5.08,.99,.76,2.39,2.01,3.59,3.88,2.35,3.68,2.39,7.37,2.39,9.26,0,8.96-6.01,15.21-7.47,16.73-2.93,3.05-6.04,4.88-8.37,5.98-.06,.71-.29,2.36-1.49,3.88-1.84,2.32-4.52,2.6-5.38,2.69-.99,.1-4.05,.42-5.38-1.49-.5-.72-.6-1.52-.6-2.09-.04,.49-.18,1.15-.6,1.79-1.27,1.95-4.19,2.14-5.98,1.79-2.21-.43-4.75-2.07-5.38-4.78-.37-1.59,.05-2.95,.3-3.59-1.17-.64-2.81-1.68-4.48-3.29-2.5-2.41-3.75-4.83-4.48-6.27-.81-1.61-1.83-4.04-2.39-7.17-.89-.09-2.33-.35-3.88-1.2-.26-.14-2.74-1.52-4.18-4.18-2.74-5.05,.4-10.72,.6-11.05Z"/>
      <path class="cls-3" d="M54.05,3.05c.31-.41,.96-.37,1.79-.3,1.41,.12,3.32,.65,3.29,1.2-.02,.29-.71,.49-2.09,.9-1.29,.38-1.95,.56-2.39,.3-.68-.41-1.01-1.55-.6-2.09Z"/>
      <circle class="cls-4" cx="51.06" cy="3.95" r="1.2"/>
      <circle class="cls-3" cx="55.1" cy="7.69" r="2.24"/>
      <path class="cls-1" d="M1.11,15.4c2.03,1.49,4.88,1.87,7.23,.95,.38-.15,.69-.33,.9-.69,.19-.32,.27-.8,.15-1.16-.23-.71-1.06-1.35-1.85-1.05-.39,.15-.79,.27-1.2,.34-.07,.01-.15,.01-.22,.04,.12-.04,.32-.04,.07-.02-.15,.01-.3,.02-.45,.03-.16,0-.32,0-.49,0-.09,0-.19-.02-.28-.02-.3-.02,.19,.04,.01,0-.3-.06-.59-.12-.88-.21-.13-.04-.26-.09-.39-.14-.29-.11,.24,.11,.08,.04-.06-.03-.12-.06-.18-.09-.35-.17-.68-.37-1-.6-.29-.22-.82-.24-1.16-.15s-.73,.36-.9,.69c-.41,.78-.14,1.55,.54,2.05h0Z"/>
      <path class="cls-1" d="M2.9,20.7c2.4,.69,4.91,.77,7.35,.29,.77-.15,1.28-1.11,1.05-1.85-.27-.82-1.02-1.21-1.85-1.05-.14,.03-.28,.05-.42,.08-.08,.01-.53,.1-.15,.03-.24,.04-.49,.06-.73,.07-.53,.04-1.06,.05-1.59,.02-.25-.01-.49-.03-.73-.05-.04,0-.5-.06-.29-.03s-.24-.04-.29-.05c-.52-.09-1.04-.21-1.55-.36-.75-.22-1.67,.27-1.85,1.05s.24,1.61,1.05,1.85h0Z"/>
      <path class="cls-1" d="M19.65,20.86c.2,4.12,1.64,8.13,4.19,11.39,2.97,3.78,7.36,6.27,12.09,7.06,1.35,.22,2.71,.36,4.08,.31,1.92-.07,1.93-3.07,0-3-3.78,.14-7.66-.99-10.8-3.28-3.99-2.91-6.34-7.82-6.56-12.47-.09-1.92-3.09-1.93-3,0h0Z"/>
      <path class="cls-1" d="M22.04,23.48c2.33,.78,4.94,.83,7.26,0,2.07-.74,3.98-2.02,5.56-3.55,1.39-1.34-.73-3.46-2.12-2.12-.65,.62-1.33,1.16-2.09,1.64-.71,.46-1.5,.9-2.15,1.13-1.95,.7-3.8,.63-5.66,0-.77-.26-1.64,.3-1.85,1.05-.23,.82,.28,1.59,1.05,1.85h0Z"/>
      <path class="cls-1" d="M23.72,30.04c2.63,.39,5.38,.36,7.96-.36s4.87-2.31,6.99-3.86c.65-.48,.98-1.3,.54-2.05-.38-.64-1.39-1.02-2.05-.54-1.84,1.34-3.85,2.84-6.06,3.5-2.09,.63-4.29,.76-6.58,.42-.8-.12-1.61,.2-1.85,1.05-.19,.71,.24,1.73,1.05,1.85h0Z"/>
      <path class="cls-1" d="M28.37,35.34c5.82,.11,11.34-2.18,15.7-5.98,.61-.53,.54-1.58,0-2.12-.61-.61-1.51-.53-2.12,0-3.77,3.28-8.57,5.19-13.58,5.1-1.93-.03-1.93,2.97,0,3h0Z"/>
      <path class="cls-2" d="M25.67,50.26c.2,2.29,.4,4.58,.6,6.87h.9v-6.57c-.5-.1-1-.2-1.49-.3Z"/>
      <path class="cls-2" d="M38.81,50.56c.8,2.29,1.59,4.58,2.39,6.87,.4-.1,.8-.2,1.2-.3l-1.79-7.17c-.6,.2-1.2,.4-1.79,.6Z"/>
      <path class="cls-1" d="M23.57,58.76c2.26,.08,4.53,.04,6.79-.13,.78-.06,1.54-.65,1.5-1.5-.03-.76-.66-1.56-1.5-1.5-2.26,.17-4.52,.21-6.79,.13-.78-.03-1.54,.71-1.5,1.5,.04,.84,.66,1.47,1.5,1.5h0Z"/>
      <path class="cls-1" d="M39.46,58.85c2.26,.15,4.53,.18,6.79,.12,.78-.02,1.54-.67,1.5-1.5s-.66-1.53-1.5-1.5c-2.26,.07-4.53,.03-6.79-.12-.78-.05-1.53,.73-1.5,1.5,.04,.86,.66,1.45,1.5,1.5h0Z"/>
    </g>
  </g>
</svg>