<?xml version="1.0" encoding="UTF-8"?>
<svg id="Ebene_2" data-name="Ebene 2" xmlns="http://www.w3.org/2000/svg" viewBox="0 0 59.22 47.44">
  <defs>
    <style>
      .cls-1 {
        fill: #ba5313;
      }

      .cls-2 {
        stroke-miterlimit: 10;
      }

      .cls-2, .cls-3 {
        fill: none;
        stroke: #000;
      }

      .cls-3 {
        stroke-linecap: round;
        stroke-linejoin: round;
      }

      .cls-4 {
        fill: #006130;
      }
    </style>
  </defs>
  <g id="Ebene_1-2" data-name="Ebene 1">
    <path class="cls-3" d="M4.5,15.94c6.23,1.21,14.02,2.16,23,2,7.25-.13,13.65-.96,19-2,.73,1.44,1.62,3.6,2.08,6.35,.11,1.38,.18,3.33-.08,5.65-.06,.51-.33,2.99-1,5-2.57,7.73-11.82,11.18-14,12-.69,.26-2.08,.77-4,1-1.64,.2-6.35,.2-8,0-.19-.02-2-.25-4-1-3.86-1.44-9.89-5.34-12.81-11.69-.71-1.55-1.09-2.92-1.19-3.31-.23-.87-.85-3.42-.66-6.78,.18-3.08,.97-5.56,1.66-7.22Z"/>
    <path class="cls-2" d="M48.5,21.94c2.21-1.61,4.93-2.05,7-1,3.28,1.66,4.24,6.68,2,10-2.08,3.08-6.5,4.08-10,2"/>
    <path class="cls-3" d="M.5,45.94c17.83,.33,35.67,.67,53.5,1"/>
    <g>
      <path class="cls-1" d="M27.03,13.17c.08-1.69-.55-3.38-.3-5.05,.08-.53,.25-1.05,.38-1.57,.31-1.24,.38-2.54,.22-3.81"/>
      <path class="cls-1" d="M28.53,13.17c.05-1.69-.62-3.51-.26-5.09,.2-.89,.45-1.75,.56-2.66s.11-1.79,.01-2.68c-.09-.8-.62-1.5-1.5-1.5-.74,0-1.59,.69-1.5,1.5s.11,1.72,.02,2.47c-.11,.82-.41,1.6-.55,2.42-.33,1.89,.29,3.66,.23,5.53-.03,.81,.71,1.5,1.5,1.5,.83,0,1.47-.69,1.5-1.5h0Z"/>
    </g>
    <g>
      <path class="cls-1" d="M32.9,12.36c-.35-1.63-.7-3.35-.17-4.92,.21-.63,.56-1.21,.76-1.84,.35-1.08,.28-2.24,.2-3.37"/>
      <path class="cls-1" d="M34.35,11.96c-.33-1.53-.64-3.04-.04-4.45,.32-.76,.71-1.56,.84-2.43,.14-.95,.12-1.89,.05-2.85-.05-.81-.65-1.5-1.5-1.5-.77,0-1.55,.69-1.5,1.5s.14,1.73,0,2.42c-.19,.88-.65,1.57-.93,2.48-.58,1.84-.2,3.8,.2,5.63,.17,.79,1.1,1.25,1.85,1.05,.82-.23,1.22-1.05,1.05-1.85h0Z"/>
    </g>
    <g>
      <path class="cls-1" d="M19.51,1.5l-.22,3.93c-.03,.49-.05,.99-.02,1.48,.05,.63,.2,1.24,.3,1.86,.14,.85,.18,1.72,.13,2.59"/>
      <path class="cls-1" d="M18.01,1.5c-.09,1.67-.29,3.37-.25,5.04,.02,.89,.23,1.75,.37,2.63,.1,.62,.11,1.47,.07,2.19-.04,.78,.72,1.53,1.5,1.5,.85-.04,1.45-.66,1.5-1.5s0-1.75-.13-2.62c-.11-.77-.31-1.47-.32-2.2-.03-1.67,.16-3.37,.25-5.04,.04-.78-.72-1.53-1.5-1.5-.85,.04-1.45,.66-1.5,1.5h0Z"/>
    </g>
    <g>
      <path class="cls-4" d="M42.5,34.94c-1.49,1.47-3.79,3.4-7,5-2.65,1.32-5.09,1.99-6.94,2.35"/>
      <path class="cls-4" d="M41.44,33.88c-3.65,3.58-8.26,5.97-13.28,6.96-.8,.16-1.25,1.11-1.05,1.85,.23,.83,1.05,1.2,1.85,1.05,5.5-1.08,10.6-3.81,14.6-7.73,1.38-1.35-.74-3.48-2.12-2.12h0Z"/>
    </g>
  </g>
</svg>