<?xml version="1.0" encoding="UTF-8"?>
<svg id="Ebene_2" data-name="Ebene 2" xmlns="http://www.w3.org/2000/svg" viewBox="0 0 35.44 55.67">
  <defs>
    <style>
      .cls-1 {
        fill: #ba5313;
      }

      .cls-2 {
        fill: none;
        stroke: #171614;
        stroke-miterlimit: 10;
      }

      .cls-3 {
        fill: #006130;
      }
    </style>
  </defs>
  <g id="Ebene_1-2" data-name="Ebene 1">
    <g>
      <circle class="cls-2" cx="10.89" cy="19.97" r="4.22"/>
      <circle class="cls-2" cx="4.72" cy="25.98" r="4.22"/>
      <circle class="cls-2" cx="13.84" cy="28.25" r="4.22"/>
      <circle class="cls-2" cx="20.01" cy="21.76" r="4.22"/>
      <circle class="cls-2" cx="28.45" cy="24" r="4.22"/>
      <circle class="cls-2" cx="21.95" cy="30.2" r="4.22"/>
      <circle class="cls-2" cx="15.79" cy="37.04" r="4.22"/>
      <circle class="cls-2" cx="7.67" cy="34.42" r="4.22"/>
      <circle class="cls-2" cx="8.94" cy="42.86" r="4.22"/>
      <circle class="cls-2" cx="30.72" cy="32.47" r="4.22"/>
      <circle class="cls-2" cx="24.88" cy="38.64" r="4.22"/>
      <circle class="cls-2" cx="18.06" cy="45.13" r="4.22"/>
      <circle class="cls-2" cx="11.54" cy="50.95" r="4.22"/>
      <path class="cls-2" d="M21.63,17.86c.56,.24,2.23-1.91,3.09-4.19,.15-.39,2.06-5.7-1-10-.51-.71-1.76-2.47-4-3-1.76-.42-4.3-.11-4.91,1.28-.28,.64-.19,1.58,.32,1.95,.7,.5,1.57-.33,2.92-.32,1.8,0,3.16,1.5,3.57,1.95,3.27,3.58-1.08,11.87,0,12.34Z"/>
      <path class="cls-1" d="M24.44,6.47c-.64-1.87-1.95-3.87-3.82-4.68-1.69-.74-3.62-.47-5.28,.24-.37,.16-.45,.71-.27,1.03,.23,.39,.65,.43,1.03,.27-.28,.12,.01,0,.09-.03,.11-.04,.23-.08,.34-.12,.33-.11,.67-.19,1.01-.25,.81-.14,1.69-.11,2.45,.22,1.47,.62,2.51,2.28,3.01,3.74,.31,.91,1.76,.52,1.45-.4h0Z"/>
      <path class="cls-3" d="M9.57,34.79c-.08,.19-.19,.37-.3,.54-.06,.09,.11-.12-.02,.02-.03,.03-.06,.06-.09,.09-.07,.08-.15,.15-.24,.22,.08-.07,.02-.02-.03,.02-.04,.02-.07,.05-.11,.07-.05,.03-.09,.05-.14,.08-.02,0-.17,.09-.08,.04s-.09,.03-.09,.03c-.04,.01-.08,.03-.12,.04-.1,.03-.21,.05-.32,.07,.07-.01,.07,0,0,0-.06,0-.11,0-.17,0-.1,0-.2,0-.3-.01,.15,.01,0,0-.03,0-.05-.01-.11-.02-.16-.04-.04-.01-.09-.02-.13-.04,0,0-.18-.06-.1-.03s-.07-.04-.09-.04c-.05-.02-.1-.05-.15-.08-.09-.05-.17-.1-.25-.17,.08,.07,.01,0-.03-.03s-.08-.08-.12-.12c-.03-.03-.06-.07-.09-.1-.15-.16,.08,.11-.05-.06-.23-.32-.66-.5-1.03-.27-.31,.2-.52,.69-.27,1.03,.71,.98,1.87,1.6,3.1,1.45,1.17-.14,2.23-.85,2.7-1.95,.15-.36,.12-.82-.27-1.03-.32-.17-.86-.12-1.03,.27h0Z"/>
      <path class="cls-3" d="M19.13,43.84c.04,.1,.07,.21,.1,.32,.01,.05,.02,.11,.03,.16,.04,.17,0-.14,0,.02,0,.11,.01,.21,0,.32,0,.05,0,.11-.01,.16-.01,.18,.03-.17,0,.01-.02,.11-.04,.21-.08,.31-.02,.05-.03,.1-.05,.15-.06,.17,.07-.14,0,.02-.05,.1-.1,.19-.16,.28,0,0-.09,.14-.09,.13,.06-.07,.07-.09,.03-.04-.02,.02-.03,.04-.05,.06-.07,.08-.14,.15-.22,.22l-.04,.03c-.06,.05-.05,.04,.03-.02-.03,.04-.09,.07-.13,.09-.09,.06-.18,.11-.27,.15l-.05,.02c-.07,.03-.06,.03,.04-.01-.03,.03-.11,.04-.15,.05-.1,.03-.2,.06-.3,.08-.04,0-.15,.06-.05,.01,.07,0,.06,0,0,0-.03,0-.05,0-.08,0-.1,0-.21,0-.31,0-.05,0-.11,0-.16-.01-.06,0-.04,0,.07,0-.04,0-.07-.01-.11-.02-.38-.07-.83,.11-.92,.52-.08,.37,.11,.84,.52,.92,1.15,.22,2.39-.11,3.18-1.01s1.09-2.22,.67-3.37c-.14-.37-.51-.66-.92-.52-.36,.12-.67,.53-.52,.92h0Z"/>
      <path class="cls-3" d="M8.76,20.39s0-.29,.01-.29c-.01,.09-.02,.11,0,.06,0-.03,0-.06,.02-.09,0-.05,.02-.09,.03-.14,.02-.09,.06-.18,.09-.27,.03-.09-.06,.12,0,0,.03-.05,.05-.1,.08-.15,.05-.08,.1-.16,.15-.24,.08-.12-.06,.06,0,0,.03-.04,.06-.07,.09-.11,.07-.07,.14-.13,.21-.2,.14-.13-.13,.08,.03-.03,.04-.03,.08-.06,.12-.08,.09-.06,.18-.1,.28-.15,.07-.04-.1,.03,.03-.01,.05-.02,.1-.04,.15-.05,.11-.03,.23-.06,.34-.08-.11,.02-.06,0,.02,0,.05,0,.11,0,.16,0,.11,0,.21,0,.32,.02-.16-.01-.02,0,.02,0,.05,.01,.1,.02,.16,.04,.06,.02,.12,.04,.18,.06,.02,0,.18,.07,.09,.03s.09,.05,.09,.04c.06,.03,.11,.06,.17,.1,.34,.2,.84,.09,1.03-.27s.09-.81-.27-1.03c-1.06-.64-2.45-.66-3.51,0-.98,.62-1.56,1.7-1.57,2.86,0,.39,.35,.77,.75,.75s.75-.33,.75-.75h0Z"/>
      <path class="cls-3" d="M23.37,30.59c-.08,.19-.19,.37-.3,.54-.06,.09,.11-.12-.02,.02-.03,.03-.06,.06-.09,.09-.07,.08-.15,.15-.24,.22,.08-.07,.02-.02-.03,.02-.04,.02-.07,.05-.11,.07-.05,.03-.09,.05-.14,.08-.02,0-.17,.09-.08,.04s-.09,.03-.09,.03c-.04,.01-.08,.03-.12,.04-.1,.03-.21,.05-.32,.07,.07-.01,.07,0,0,0-.06,0-.11,0-.17,0-.1,0-.2,0-.3-.01,.15,.01,0,0-.03,0-.05-.01-.11-.02-.16-.04-.04-.01-.09-.02-.13-.04,0,0-.18-.06-.1-.03s-.07-.04-.09-.04c-.05-.02-.1-.05-.15-.08-.09-.05-.17-.1-.25-.17,.08,.07,.01,0-.03-.03s-.08-.08-.12-.12c-.03-.03-.06-.07-.09-.1-.15-.16,.08,.11-.05-.06-.23-.32-.66-.5-1.03-.27-.31,.2-.52,.69-.27,1.03,.71,.98,1.87,1.6,3.1,1.45,1.17-.14,2.23-.85,2.7-1.95,.15-.36,.12-.82-.27-1.03-.32-.17-.86-.12-1.03,.27h0Z"/>
      <path class="cls-3" d="M18.92,22.6c.08,.11,0-.02-.02-.04-.03-.05-.06-.09-.09-.14s-.05-.1-.08-.15c-.01-.03-.07-.17-.02-.03-.04-.1-.07-.21-.1-.31-.01-.04-.02-.09-.03-.13-.05-.2,0,.15-.01-.06,0-.1-.01-.2-.01-.29,0-.05,0-.11,0-.16,0-.14-.02,.06,0-.03,.03-.11,.04-.22,.08-.32,.02-.05,.04-.11,.05-.16-.03,.1-.02,.05,0-.02,.04-.08,.08-.16,.13-.24,.03-.04,.06-.08,.08-.12,.04-.08-.08,.09,0-.01,.07-.07,.13-.15,.2-.22,.04-.03,.08-.06,.11-.1,.07-.07-.14,.09,.01-.01,.08-.06,.16-.11,.25-.16,.03-.02,.07-.04,.11-.06,.03-.02,.2-.08,.04-.02,.09-.03,.17-.06,.26-.08,.05-.01,.1-.03,.15-.04,.04,0,.23-.04,.04-.01,.39-.05,.77-.31,.75-.75-.02-.36-.33-.8-.75-.75-1.15,.15-2.22,.79-2.71,1.87-.25,.56-.38,1.17-.31,1.78,.08,.69,.35,1.28,.78,1.82,.24,.31,.81,.27,1.06,0,.3-.33,.26-.73,0-1.06h0Z"/>
      <path class="cls-3" d="M12.69,52.77c-.09,.06-.19,.11-.29,.16-.18,.09,.13-.04-.06,.02-.05,.02-.1,.03-.15,.05s-.1,.03-.16,.04c-.02,0-.2,.04-.09,.02s-.07,0-.09,0c-.06,0-.13,0-.19,0-.04,0-.09,0-.13,0-.03,0-.23-.03-.05,0-.11-.02-.21-.04-.31-.07-.05-.01-.1-.03-.15-.05-.06-.02-.13-.06-.03-.01-.1-.05-.2-.1-.29-.16-.04-.03-.08-.05-.12-.08-.12-.08,.06,.06,0,0-.07-.07-.14-.13-.21-.2-.03-.03-.06-.07-.1-.11-.12-.14,.08,.13-.02-.03-.05-.08-.11-.16-.15-.24-.02-.04-.04-.08-.07-.13-.06-.13-.04-.02,0,0-.04-.02-.08-.24-.09-.27-.02-.06-.03-.11-.04-.17,0-.02-.03-.19-.01-.07s0-.07,0-.07c0-.06,0-.12,0-.18,0-.39-.34-.77-.75-.75s-.75,.33-.75,.75c.01,1.15,.6,2.22,1.57,2.84,1.06,.67,2.46,.65,3.52,0,.33-.21,.49-.68,.27-1.03s-.67-.49-1.03-.27h0Z"/>
    </g>
  </g>
</svg>