<?xml version="1.0" encoding="UTF-8"?>
<svg id="Ebene_2" data-name="Ebene 2" xmlns="http://www.w3.org/2000/svg" viewBox="0 0 51.66 58">
  <defs>
    <style>
      .cls-1 {
        fill: #ba5313;
      }

      .cls-2 {
        fill: none;
      }

      .cls-2, .cls-3 {
        stroke: #171614;
        stroke-miterlimit: 10;
      }

      .cls-4 {
        fill: #006130;
      }

      .cls-3 {
        fill: #fff;
      }
    </style>
  </defs>
  <g id="Ebene_1-2" data-name="Ebene 1">
    <g>
      <path class="cls-2" d="M43.94,11.97c-.08-.33-2.13,.09-4.16,0-4.39-.19-6.43-2.69-9.93-4.54-5.43-2.88-11.08-2.47-16.01-2.12C7.36,5.77,.89,7.89,1.03,8.94c.07,.54,1.85,.48,6.72,1.21,.53,.08,6.65,1.02,13.13,2.72,6.3,1.66,6.29,2.3,9.29,2.42,4.07,.17,7.51-.88,9.61-1.51,1.73-.52,4.26-1.44,4.16-1.82Z"/>
      <path class="cls-2" d="M45.89,12.37c-.46,1.24,.72,1.96,.73,3.66,0,.87-.13,1.77-1.22,4.88-.61,1.74-.91,2.61-1.46,3.9-.33,.79-2.64,6.22-3.41,10.97-.27,1.63-.93,6.7,.98,12.43,1.68,5.05,5,9.62,5.85,9.27,.34-.14,.15-1,0-2.93,0,0-.44-5.44,.24-10.48,.35-2.59,.61-1.85,1.95-7.56,1.13-4.83,1.36-6.66,1.46-7.8,.35-4-.08-6.12-.24-6.83-.36-1.58-.72-3.15-1.95-4.63-.72-.86-1.09-.92-1.46-1.71-.97-2.02,.23-4.18-.24-4.39-.27-.12-.94,.47-1.22,1.22Z"/>
      <path class="cls-3" d="M47.59,.67c1-.52,2.87,.23,3.41,1.46,.31,.7,.35,1.7-1.95,5.61-2.47,4.18-1.37,2.61-4.02,5.97-1.41,1.79-1.69,1.97-4.88,5.61-4.55,5.18-5.24,6.24-7.59,8.28-.69,.6-1.5,1.3-3,2.49-1.97,1.57-2.95,2.19-4.65,3.73-4.5,4.09-19.74,5.5-16.58,2.44,4.36-4.23,7.44-7.45,12.68-9.02,5.3-1.59,7.12,.12,11.34-2.32,3.33-1.93,5.6-4.97,8.17-8.41,1.65-2.21,2.85-4.18,3.66-5.61,.77-1.62,1.65-3.47,2.19-6.1,.51-2.45,.34-3.69,1.22-4.14Z"/>
      <path class="cls-3" d="M31.01,16.03c-3.12-3.94-7.59-4.87-9.39-5.24-.74-.15-11.38-2.2-17.68,5-1.06,1.21-3.8,4.34-3.41,8.29,.6,6.17,8.32,10,13.9,10.73,6.63,.86,11.62-2.46,13.41-3.66,2.41-1.61,5.17-3.45,5.85-6.83,.79-3.93-1.85-7.25-2.68-8.29Z"/>
      <path class="cls-4" d="M9.71,31.49c4.62,2.38,10.17,1.88,14.69-.48,1.71-.89,.2-3.48-1.51-2.59-1.81,.94-3.99,1.59-6.24,1.64-1.18,.03-2.34-.1-3.48-.42-.43-.12-.84-.27-1.26-.42-.38-.14,.16,.08-.03-.01-.08-.04-.16-.07-.25-.11-.14-.06-.27-.13-.4-.2-1.71-.88-3.23,1.7-1.51,2.59h0Z"/>
      <path class="cls-1" d="M49.08,2.76c-.42,.91-.85,1.81-1.27,2.72-.09,.19-.13,.37-.08,.58,.05,.17,.18,.36,.34,.45,.33,.18,.85,.11,1.03-.27,.42-.91,.85-1.81,1.27-2.72,.09-.19,.13-.37,.08-.58-.05-.17-.18-.36-.34-.45-.33-.18-.85-.11-1.03,.27-.42,.91-.85,1.81-1.27,2.72-.09,.19-.13,.37-.08,.58,.05,.17,.18,.36,.34,.45,.33,.18,.85,.11,1.03-.27,.42-.91,.85-1.81,1.27-2.72,.09-.19,.13-.37,.08-.58-.05-.17-.18-.36-.34-.45-.33-.18-.85-.11-1.03,.27Z"/>
      <path class="cls-4" d="M13.43,9.41c6.65-1.07,13.63,1.74,19.35,4.9,1.69,.93,3.21-1.66,1.51-2.59-6.51-3.59-14.14-6.41-21.66-5.2-1.9,.31-1.09,3.2,.8,2.89h0Z"/>
      <path class="cls-3" d="M36.14,25.3c-4.84-1.13-8.78,.65-10,1.22-1.47,.69-5.22,2.51-7.31,6.83-.42,.87-3,6.19-.49,10.73,2.84,5.12,10.23,5.72,14.87,4.63,4.49-1.06,9.42-4.41,10.97-9.75,.25-.87,1.69-5.82-1.22-9.75-2.07-2.79-5.18-3.52-6.83-3.9Z"/>
      <path class="cls-4" d="M39.57,37.53c-.09,.14-.18,.27-.28,.41-.07,.09-.13,.19-.2,.28-.02,.03-.23,.3-.11,.15-.15,.2-.65,.78-.96,1.1-.9,.94-1.89,1.74-3.01,2.41-2.37,1.41-5.06,2.07-7.79,1.99-1.93-.06-1.93,2.94,0,3,5.99,.18,11.65-2.84,14.95-7.81,1.07-1.61-1.53-3.12-2.59-1.51h0Z"/>
    </g>
  </g>
</svg>