<?xml version="1.0" encoding="UTF-8"?>
<svg id="Ebene_2" data-name="Ebene 2" xmlns="http://www.w3.org/2000/svg" viewBox="0 0 42.9 31.6">
  <defs>
    <style>
      .cls-1 {
        fill: #ba5313;
      }
    </style>
  </defs>
  <g id="Ebene_1-2" data-name="Ebene 1">
    <path class="cls-1" d="M21.4,9.1c0,8.5-4.7,17-15.6,22.5L0,23.7c4.8-3.5,6.1-7.6,6.1-11.3,0-4.1-1.7-7.8-2-10,.2-.2,2.8-2.4,9-2.4s8.3,4.2,8.3,9.1Zm21.5,0c0,8.5-4.7,17-15.6,22.5l-5.8-7.9c4.8-3.5,6.1-7.6,6.1-11.3,0-4.1-1.7-7.8-2-10,.2-.2,2.8-2.4,9-2.4s8.3,4.2,8.3,9.1Z"/>
  </g>
</svg>